<svg xmlns="http://www.w3.org/2000/svg" xmlns:xlink="http://www.w3.org/1999/xlink" width="80" height="80" viewBox="0 0 80 80">
  <defs>
    <linearGradient id="linear-gradient" x1="0.5" y1="-0.053" x2="0.512" y2="1" gradientUnits="objectBoundingBox">
      <stop offset="0" stop-color="#71cf93"/>
      <stop offset="1" stop-color="#59b15c"/>
    </linearGradient>
    <linearGradient id="linear-gradient-2" x1="0.497" y1="-0.018" x2="0.497" y2="3.089" gradientUnits="objectBoundingBox">
      <stop offset="0" stop-color="#85dfaf"/>
      <stop offset="1" stop-color="#69c581"/>
    </linearGradient>
  </defs>
  <g id="그룹_351" data-name="그룹 351" transform="translate(-238 -209)">
    <g id="green_body_square" transform="translate(278 249)">
      <g id="그룹_18" data-name="그룹 18">
        <g id="그룹_17" data-name="그룹 17">
          <path id="패스_17" data-name="패스 17" d="M40-26q-.25-10-10.55-10H-29.5Q-39.75-36-40-26V29.95Q-39.75,40-29.5,40H29.45Q39.75,40,40,29.95Z" fill="url(#linear-gradient)"/>
          <path id="패스_18" data-name="패스 18" d="M40-29.5Q40-40,29.45-40H-29.5Q-40-40-40-29.5V-26q.25-10,10.5-10H29.45Q39.75-36,40-26Z" fill="url(#linear-gradient-2)"/>
        </g>
      </g>
    </g>
    <g id="face_d" transform="translate(278.117 248.112)">
      <g id="그룹_174" data-name="그룹 174">
        <g id="그룹_173" data-name="그룹 173">
          <path id="패스_129" data-name="패스 129" d="M-7.95-3.15A9.515,9.515,0,0,0-15-6.1a9.515,9.515,0,0,0-7.05,2.95A9.515,9.515,0,0,0-25,3.9H-5A9.515,9.515,0,0,0-7.95-3.15Z" fill="#fff"/>
        </g>
      </g>
      <g id="그룹_176" data-name="그룹 176">
        <g id="그룹_175" data-name="그룹 175">
          <path id="패스_130" data-name="패스 130" d="M-10.75-.35A5.786,5.786,0,0,0-15-2.1,5.728,5.728,0,0,0-19.2-.35,5.706,5.706,0,0,0-21,3.9H-9A5.786,5.786,0,0,0-10.75-.35Z" fill="#3d465d"/>
        </g>
      </g>
      <g id="그룹_178" data-name="그룹 178">
        <g id="그룹_177" data-name="그룹 177">
          <path id="패스_131" data-name="패스 131" d="M22.05-3.15A9.515,9.515,0,0,0,15-6.1,9.515,9.515,0,0,0,7.95-3.15,9.515,9.515,0,0,0,5,3.9H25A9.515,9.515,0,0,0,22.05-3.15Z" fill="#fff"/>
        </g>
      </g>
      <g id="그룹_180" data-name="그룹 180">
        <g id="그룹_179" data-name="그룹 179">
          <path id="패스_132" data-name="패스 132" d="M19.25-.35A5.786,5.786,0,0,0,15-2.1,5.728,5.728,0,0,0,10.8-.35,5.706,5.706,0,0,0,9,3.9H21A5.786,5.786,0,0,0,19.25-.35Z" fill="#3d465d"/>
        </g>
      </g>
      <g id="그룹_182" data-name="그룹 182">
        <g id="그룹_181" data-name="그룹 181">
          <path id="패스_133" data-name="패스 133" d="M-26.05-3.5l.8,2.9a1.857,1.857,0,0,0,.9,1.25,1.959,1.959,0,0,0,1.5.2L-7.4-3.3a1.824,1.824,0,0,0,1.25-.95,1.918,1.918,0,0,0,.2-1.5l-.8-2.9a2.02,2.02,0,0,0-.9-1.25,2.226,2.226,0,0,0-1.55-.15L-24.65-5.9a1.838,1.838,0,0,0-1.2.9A1.959,1.959,0,0,0-26.05-3.5Z" fill="#3d465d"/>
        </g>
      </g>
      <g id="그룹_184" data-name="그룹 184">
        <g id="그룹_183" data-name="그룹 183">
          <path id="패스_134" data-name="패스 134" d="M6.2-9.15a1.726,1.726,0,0,0,1.2.85L22.85-4.15a2.079,2.079,0,0,0,1.55-.1,2.079,2.079,0,0,0,.85-1.25l.8-2.9a2.07,2.07,0,0,0-.15-1.5,2.179,2.179,0,0,0-1.25-1L9.2-15.05a1.8,1.8,0,0,0-1.5.25,1.672,1.672,0,0,0-.95,1.2l-.8,2.9A1.978,1.978,0,0,0,6.2-9.15Z" fill="#3d465d"/>
        </g>
      </g>
      <g id="그룹_186" data-name="그룹 186">
        <g id="그룹_185" data-name="그룹 185">
          <path id="패스_135" data-name="패스 135" d="M9.95,10.8a1.8,1.8,0,0,0-1.55-.2,2.079,2.079,0,0,0-1.25.85A4.454,4.454,0,0,1,6,12.5a8.07,8.07,0,0,1-4.35,1.15,10.96,10.96,0,0,1-2.15-.2,2.1,2.1,0,0,0-1.55.3,1.693,1.693,0,0,0-.9,1.2,1.662,1.662,0,0,0,.3,1.45,2,2,0,0,0,1.3.8,13.855,13.855,0,0,0,3,.3A12.03,12.03,0,0,0,8.3,15.7l-.05.05a7.435,7.435,0,0,0,2.5-2.35,1.857,1.857,0,0,0,.2-1.45A1.811,1.811,0,0,0,9.95,10.8Z" fill="#3d465d"/>
        </g>
      </g>
    </g>
  </g>
</svg>
