<svg xmlns="http://www.w3.org/2000/svg" xmlns:xlink="http://www.w3.org/1999/xlink" width="373.648" height="376.07" viewBox="0 0 373.648 376.07">
  <defs>
    <linearGradient id="linear-gradient" x1="0.5" y1="-0.053" x2="0.512" y2="1" gradientUnits="objectBoundingBox">
      <stop offset="0" stop-color="#71cf93"/>
      <stop offset="1" stop-color="#59b15c"/>
    </linearGradient>
    <linearGradient id="linear-gradient-2" x1="0.497" y1="-0.018" x2="0.497" y2="3.089" gradientUnits="objectBoundingBox">
      <stop offset="0" stop-color="#85dfaf"/>
      <stop offset="1" stop-color="#69c581"/>
    </linearGradient>
    <radialGradient id="radial-gradient" cx="0.519" cy="0.519" r="0.505" gradientUnits="objectBoundingBox">
      <stop offset="0" stop-opacity="0.302"/>
      <stop offset="1" stop-opacity="0"/>
    </radialGradient>
  </defs>
  <g id="그룹_14817" data-name="그룹 14817" transform="translate(-101 -474.356)">
    <g id="그룹_14816" data-name="그룹 14816" transform="translate(18 405)">
      <g id="green_body_square" transform="translate(278 249)">
        <g id="그룹_18" data-name="그룹 18">
          <g id="그룹_17" data-name="그룹 17">
            <path id="패스_17" data-name="패스 17" d="M40-26q-.25-10-10.55-10H-29.5Q-39.75-36-40-26V29.95Q-39.75,40-29.5,40H29.45Q39.75,40,40,29.95Z" fill="url(#linear-gradient)"/>
            <path id="패스_18" data-name="패스 18" d="M40-29.5Q40-40,29.45-40H-29.5Q-40-40-40-29.5V-26q.25-10,10.5-10H29.45Q39.75-36,40-26Z" fill="url(#linear-gradient-2)"/>
          </g>
        </g>
      </g>
      <g id="face_d" transform="translate(278.117 248.112)">
        <g id="그룹_174" data-name="그룹 174">
          <g id="그룹_173" data-name="그룹 173">
            <path id="패스_129" data-name="패스 129" d="M-7.95-3.15A9.515,9.515,0,0,0-15-6.1a9.515,9.515,0,0,0-7.05,2.95A9.515,9.515,0,0,0-25,3.9H-5A9.515,9.515,0,0,0-7.95-3.15Z" fill="#fff"/>
          </g>
        </g>
        <g id="그룹_176" data-name="그룹 176">
          <g id="그룹_175" data-name="그룹 175">
            <path id="패스_130" data-name="패스 130" d="M-10.75-.35A5.786,5.786,0,0,0-15-2.1,5.728,5.728,0,0,0-19.2-.35,5.706,5.706,0,0,0-21,3.9H-9A5.786,5.786,0,0,0-10.75-.35Z" fill="#3d465d"/>
          </g>
        </g>
        <g id="그룹_178" data-name="그룹 178">
          <g id="그룹_177" data-name="그룹 177">
            <path id="패스_131" data-name="패스 131" d="M22.05-3.15A9.515,9.515,0,0,0,15-6.1,9.515,9.515,0,0,0,7.95-3.15,9.515,9.515,0,0,0,5,3.9H25A9.515,9.515,0,0,0,22.05-3.15Z" fill="#fff"/>
          </g>
        </g>
        <g id="그룹_180" data-name="그룹 180">
          <g id="그룹_179" data-name="그룹 179">
            <path id="패스_132" data-name="패스 132" d="M19.25-.35A5.786,5.786,0,0,0,15-2.1,5.728,5.728,0,0,0,10.8-.35,5.706,5.706,0,0,0,9,3.9H21A5.786,5.786,0,0,0,19.25-.35Z" fill="#3d465d"/>
          </g>
        </g>
        <g id="그룹_182" data-name="그룹 182">
          <g id="그룹_181" data-name="그룹 181">
            <path id="패스_133" data-name="패스 133" d="M-26.05-3.5l.8,2.9a1.857,1.857,0,0,0,.9,1.25,1.959,1.959,0,0,0,1.5.2L-7.4-3.3a1.824,1.824,0,0,0,1.25-.95,1.918,1.918,0,0,0,.2-1.5l-.8-2.9a2.02,2.02,0,0,0-.9-1.25,2.226,2.226,0,0,0-1.55-.15L-24.65-5.9a1.838,1.838,0,0,0-1.2.9A1.959,1.959,0,0,0-26.05-3.5Z" fill="#3d465d"/>
          </g>
        </g>
        <g id="그룹_184" data-name="그룹 184">
          <g id="그룹_183" data-name="그룹 183">
            <path id="패스_134" data-name="패스 134" d="M6.2-9.15a1.726,1.726,0,0,0,1.2.85L22.85-4.15a2.079,2.079,0,0,0,1.55-.1,2.079,2.079,0,0,0,.85-1.25l.8-2.9a2.07,2.07,0,0,0-.15-1.5,2.179,2.179,0,0,0-1.25-1L9.2-15.05a1.8,1.8,0,0,0-1.5.25,1.672,1.672,0,0,0-.95,1.2l-.8,2.9A1.978,1.978,0,0,0,6.2-9.15Z" fill="#3d465d"/>
          </g>
        </g>
        <g id="그룹_186" data-name="그룹 186">
          <g id="그룹_185" data-name="그룹 185">
            <path id="패스_135" data-name="패스 135" d="M9.95,10.8a1.8,1.8,0,0,0-1.55-.2,2.079,2.079,0,0,0-1.25.85A4.454,4.454,0,0,1,6,12.5a8.07,8.07,0,0,1-4.35,1.15,10.96,10.96,0,0,1-2.15-.2,2.1,2.1,0,0,0-1.55.3,1.693,1.693,0,0,0-.9,1.2,1.662,1.662,0,0,0,.3,1.45,2,2,0,0,0,1.3.8,13.855,13.855,0,0,0,3,.3A12.03,12.03,0,0,0,8.3,15.7l-.05.05a7.435,7.435,0,0,0,2.5-2.35,1.857,1.857,0,0,0,.2-1.45A1.811,1.811,0,0,0,9.95,10.8Z" fill="#3d465d"/>
          </g>
        </g>
      </g>
    </g>
    <g id="그룹_14815" data-name="그룹 14815" transform="translate(-574.808 779.554)">
      <g id="그룹_1504" data-name="그룹 1504" transform="matrix(0.935, -0.354, 0.354, 0.935, 1021.013, -156.098)">
        <g id="그룹_1503" data-name="그룹 1503">
          <g id="그룹_1502" data-name="그룹 1502">
            <path id="패스_1100" data-name="패스 1100" d="M11.5,13.25a27.482,27.482,0,0,0-.45-6.55L-1.15,8A8.42,8.42,0,0,1-.3,11.6Z" fill="#d78b49"/>
            <path id="패스_1101" data-name="패스 1101" d="M16,20.05l-4.5-6.8L-.3,11.6l-1.75,8.75L15.45,23Z" fill="#bf7958"/>
            <path id="패스_1102" data-name="패스 1102" d="M-2.55-5.8a5.676,5.676,0,0,0-3.6,2.7A5.892,5.892,0,0,0-6.8,1.45,5.818,5.818,0,0,0-4.05,5.1,7.566,7.566,0,0,1-1.15,8l12.2-1.3A18.2,18.2,0,0,0,2-5.15,5.619,5.619,0,0,0-2.55-5.8Z" fill="#eea160"/>
          </g>
        </g>
      </g>
      <g id="그룹_1507" data-name="그룹 1507" transform="translate(868.113 -639.998)">
        <g id="그룹_1506" data-name="그룹 1506">
          <g id="그룹_1505" data-name="그룹 1505">
            <path id="패스_1103" data-name="패스 1103" d="M138.067,503h.05l.965-5h-11.9l-.965,5Z" fill="#d78b49"/>
            <path id="패스_1104" data-name="패스 1104" d="M142.839,509l-4.772-6h-11.85l-1.867,9h17.9Z" fill="#bf7958"/>
            <path id="패스_1105" data-name="패스 1105" d="M141.033,488.8a4.567,4.567,0,0,0-1.232-4.1,5.536,5.536,0,0,0-4.273-1.7,7.658,7.658,0,0,0-4.827,1.7,6.436,6.436,0,0,0-2.568,4.1l-.95,9.2h11.9Z" fill="#eea160"/>
          </g>
        </g>
      </g>
      <g id="그룹_1512" data-name="그룹 1512" transform="translate(992.313 -169.798) rotate(-150.002)">
        <g id="그룹_1509" data-name="그룹 1509">
          <g id="그룹_1508" data-name="그룹 1508">
            <path id="패스_1106" data-name="패스 1106" d="M9.95-3.9A40.214,40.214,0,0,1,4,3.35,6.206,6.206,0,0,1-.2,5,5.909,5.909,0,0,1-4.4,3.2,5.564,5.564,0,0,1-6-1,5.646,5.646,0,0,1-4.3-5.15a24.142,24.142,0,0,0,4-4.95A20.981,20.981,0,0,0,9.95-3.9Z" fill="#3dbf7b"/>
            <path id="패스_1107" data-name="패스 1107" d="M13.85-12.85q-.3,1.15-.7,2.25a38.486,38.486,0,0,1-3.2,6.7A20.981,20.981,0,0,1-.3-10.1a24.613,24.613,0,0,0,1.5-2.75Z" fill="#fff"/>
            <path id="패스_1108" data-name="패스 1108" d="M1.2-12.85a20.839,20.839,0,0,0,1.95-6.9A5.682,5.682,0,0,1,5.3-23.7,6.161,6.161,0,0,1,9.7-25a5.8,5.8,0,0,1,3.95,2.25,5.632,5.632,0,0,1,1.3,4.35,36.344,36.344,0,0,1-1.1,5.55Z" fill="#ffd7b1"/>
          </g>
        </g>
        <g id="그룹_1511" data-name="그룹 1511">
          <g id="그룹_1510" data-name="그룹 1510">
            <path id="패스_1109" data-name="패스 1109" d="M12.4-4.8,10.35-1.2-2.55-8.7l2-3.55Z" fill="#25a863"/>
          </g>
        </g>
      </g>
      <g id="그룹_1517" data-name="그룹 1517" transform="matrix(0.992, 0.123, -0.123, 0.992, 1024.213, -175.798)">
        <g id="그룹_1514" data-name="그룹 1514">
          <g id="그룹_1513" data-name="그룹 1513">
            <path id="패스_1110" data-name="패스 1110" d="M9.95-3.9A40.213,40.213,0,0,1,4,3.35,6.206,6.206,0,0,1-.2,5,5.909,5.909,0,0,1-4.4,3.2,5.564,5.564,0,0,1-6-1,5.646,5.646,0,0,1-4.3-5.15a24.142,24.142,0,0,0,4-4.95A20.981,20.981,0,0,0,9.95-3.9Z" fill="#3dbf7b"/>
            <path id="패스_1111" data-name="패스 1111" d="M13.85-12.85q-.3,1.15-.7,2.25a38.486,38.486,0,0,1-3.2,6.7A20.981,20.981,0,0,1-.3-10.1a24.613,24.613,0,0,0,1.5-2.75Z" fill="#fff"/>
            <path id="패스_1112" data-name="패스 1112" d="M1.2-12.85a20.839,20.839,0,0,0,1.95-6.9A5.681,5.681,0,0,1,5.3-23.7,6.161,6.161,0,0,1,9.7-25a5.8,5.8,0,0,1,3.95,2.25,5.632,5.632,0,0,1,1.3,4.35,36.344,36.344,0,0,1-1.1,5.55Z" fill="#ffd7b1"/>
          </g>
        </g>
        <g id="그룹_1516" data-name="그룹 1516">
          <g id="그룹_1515" data-name="그룹 1515">
            <path id="패스_1113" data-name="패스 1113" d="M12.4-4.8,10.35-1.2-2.55-8.7l2-3.55Z" fill="#25a863"/>
          </g>
        </g>
      </g>
      <g id="그룹_1526" data-name="그룹 1526" transform="matrix(0.985, -0.173, 0.173, 0.985, 1009.213, -156.098)">
        <g id="그룹_1519" data-name="그룹 1519">
          <g id="그룹_1518" data-name="그룹 1518">
            <path id="패스_1114" data-name="패스 1114" d="M14.55-2.15H-15.5V2.8H14.55Z" fill="#bf7958"/>
            <path id="패스_1115" data-name="패스 1115" d="M-15.5,2.8A9.08,9.08,0,0,0-14,8H13.05a9.08,9.08,0,0,0,1.5-5.2Z" fill="#eea160"/>
            <path id="패스_1116" data-name="패스 1116" d="M14.55-2.15l3.2-13.65q1.05-5.4-2.6-5.2h-31.3q-3.65-.2-2.6,5.2L-15.5-2.15Z" fill="#3dbf7b"/>
          </g>
        </g>
        <g id="그룹_1521" data-name="그룹 1521">
          <g id="그룹_1520" data-name="그룹 1520">
            <path id="패스_1117" data-name="패스 1117" d="M-17.55-5.05l4.9,1.35,3.9-14.55H-14l-3.55,13.2M12.65-3.7l4.9-1.35L14-18.25H8.75Z" fill="#bf7958"/>
          </g>
        </g>
        <g id="그룹_1523" data-name="그룹 1523">
          <g id="그룹_1522" data-name="그룹 1522">
            <path id="패스_1118" data-name="패스 1118" d="M10-22a8.335,8.335,0,0,0-3.05-6.45A11.351,11.351,0,0,0-.5-31a11.351,11.351,0,0,0-7.45,2.55A8.335,8.335,0,0,0-11-22a2.544,2.544,0,0,0,.05.5,7.813,7.813,0,0,0,3,5.8A10.959,10.959,0,0,0-.5-13a10.959,10.959,0,0,0,7.45-2.7,7.813,7.813,0,0,0,3-5.8A2.544,2.544,0,0,0,10-22Z" fill="#f0c49a"/>
          </g>
        </g>
        <g id="그룹_1525" data-name="그룹 1525">
          <g id="그룹_1524" data-name="그룹 1524">
            <path id="패스_1119" data-name="패스 1119" d="M-13.1-22l-2.05,3.6,13.1,7.6L0-14.45-13.1-22m26.2,0L0-14.45,2.05-10.8l13.1-7.6Z" fill="#25a863"/>
            <path id="패스_1120" data-name="패스 1120" d="M2.05-10.8,0-14.45-2.05-10.8Z" fill="#3dbf7b"/>
          </g>
        </g>
      </g>
      <g id="그룹_1529" data-name="그룹 1529" transform="translate(1008.113 -181.198)">
        <g id="그룹_1528" data-name="그룹 1528">
          <g id="그룹_1527" data-name="그룹 1527">
            <path id="패스_1121" data-name="패스 1121" d="M12.656-9.55A20.554,20.554,0,0,0,0-13.45a21.141,21.141,0,0,0-12.79,3.9q-5.223,4-5.223,9.55t5.223,9.45A20.774,20.774,0,0,0,0,13.45a20.2,20.2,0,0,0,12.656-4Q18.013,5.55,18.013,0T12.656-9.55Z" fill="url(#radial-gradient)"/>
          </g>
        </g>
      </g>
      <g id="그룹_1546" data-name="그룹 1546" transform="translate(1008.463 -183.198) rotate(-0.736)">
        <g id="그룹_1531" data-name="그룹 1531">
          <g id="그룹_1530" data-name="그룹 1530">
            <path id="패스_1122" data-name="패스 1122" d="M-24.15-11.25a7.762,7.762,0,0,0-2.35,5.7A7.762,7.762,0,0,0-24.15.15a7.731,7.731,0,0,0,5.65,2.4A7.787,7.787,0,0,0-12.8.15a7.848,7.848,0,0,0,2.3-5.7,7.848,7.848,0,0,0-2.3-5.7,7.709,7.709,0,0,0-5.7-2.45,7.655,7.655,0,0,0-5.65,2.45m2.3,9.15a4.688,4.688,0,0,1-1.4-3.45A4.909,4.909,0,0,1-21.85-9a4.466,4.466,0,0,1,3.35-1.4A4.688,4.688,0,0,1-15.05-9a4.909,4.909,0,0,1,1.4,3.45,4.688,4.688,0,0,1-1.4,3.45A4.606,4.606,0,0,1-18.5-.65,4.392,4.392,0,0,1-21.85-2.1m40.4-11.6a7.655,7.655,0,0,0-5.65,2.45,7.762,7.762,0,0,0-2.35,5.7A7.762,7.762,0,0,0,12.9.15a7.731,7.731,0,0,0,5.65,2.4,7.787,7.787,0,0,0,5.7-2.4,7.848,7.848,0,0,0,2.3-5.7,7.848,7.848,0,0,0-2.3-5.7,7.709,7.709,0,0,0-5.7-2.45m0,13.05A4.392,4.392,0,0,1,15.2-2.1a4.606,4.606,0,0,1-1.45-3.45A4.821,4.821,0,0,1,15.2-9a4.466,4.466,0,0,1,3.35-1.4A4.8,4.8,0,0,1,22-9a4.909,4.909,0,0,1,1.4,3.45A4.688,4.688,0,0,1,22-2.1,4.712,4.712,0,0,1,18.55-.65Z" fill="#ffd7b1"/>
            <path id="패스_1123" data-name="패스 1123" d="M-23.25-5.55a4.688,4.688,0,0,0,1.4,3.45A4.392,4.392,0,0,0-18.5-.65,4.606,4.606,0,0,0-15.05-2.1a4.688,4.688,0,0,0,1.4-3.45A4.909,4.909,0,0,0-15.05-9a4.688,4.688,0,0,0-3.45-1.4A4.466,4.466,0,0,0-21.85-9a4.909,4.909,0,0,0-1.4,3.45M15.2-2.1A4.392,4.392,0,0,0,18.55-.65,4.712,4.712,0,0,0,22-2.1a4.688,4.688,0,0,0,1.4-3.45A4.909,4.909,0,0,0,22-9a4.8,4.8,0,0,0-3.45-1.4A4.466,4.466,0,0,0,15.2-9a4.821,4.821,0,0,0-1.45,3.45A4.606,4.606,0,0,0,15.2-2.1Z" fill="#e7b687"/>
          </g>
        </g>
        <g id="그룹_1533" data-name="그룹 1533">
          <g id="그룹_1532" data-name="그룹 1532">
            <path id="패스_1124" data-name="패스 1124" d="M12.25,8.05q5.4-.75,6.15-5.85L21.05-24H-21l3.25,32.05Z" fill="#ffd7b1"/>
          </g>
        </g>
        <g id="그룹_1535" data-name="그룹 1535">
          <g id="그룹_1534" data-name="그룹 1534">
            <path id="패스_1125" data-name="패스 1125" d="M20.4-44.4,7.85-32.25q-17.1-6.4-34.4,5.1L-18.6-15.6v-5.15q.8-.15,1.6-.35l.3.1A31.107,31.107,0,0,0-3.95-18.65,30.968,30.968,0,0,0,8.75-21a21.451,21.451,0,0,0,2.5-1.3,81.992,81.992,0,0,1,9.3,1.55V-15l4.95-9.6a29.924,29.924,0,0,0,2.4-8.65Q27-39.4,20.4-44.4Z" fill="#bf7958"/>
            <path id="패스_1126" data-name="패스 1126" d="M7.85-32.25,20.4-44.4q6.6,5,7.5,11.15Q29.05-43.8,20.4-52L7.85-36.75q-17.8-8.3-35.85,7.6l1.45,2Q-9.25-38.65,7.85-32.25Z" fill="#db855c"/>
          </g>
        </g>
        <g id="그룹_1537" data-name="그룹 1537">
          <g id="그룹_1536" data-name="그룹 1536">
            <path id="패스_1127" data-name="패스 1127" d="M-12.45-7.15a4.575,4.575,0,0,0,1.1,3.05,3.913,3.913,0,0,0,3,1.3A3.653,3.653,0,0,0-5.5-4.1,4.352,4.352,0,0,0-4.3-7.15a4.178,4.178,0,0,0-1.2-3A3.717,3.717,0,0,0-8.35-11.4a3.987,3.987,0,0,0-3,1.25,4.387,4.387,0,0,0-1.1,3m6.65-2.5a4.4,4.4,0,0,1,.7,2.5,4.255,4.255,0,0,1-.7,2.5,2.043,2.043,0,0,1-1.75,1.1,2.011,2.011,0,0,1-1.7-1.1,4.255,4.255,0,0,1-.7-2.5,4.4,4.4,0,0,1,.7-2.5,2.022,2.022,0,0,1,1.7-1.05A2.057,2.057,0,0,1-5.8-9.65M8.6-11.4a4.035,4.035,0,0,0-2.95,1.25,4.387,4.387,0,0,0-1.1,3A4.575,4.575,0,0,0,5.65-4.1,3.96,3.96,0,0,0,8.6-2.8a3.559,3.559,0,0,0,2.85-1.3A4.259,4.259,0,0,0,12.7-7.15a4.091,4.091,0,0,0-1.25-3A3.62,3.62,0,0,0,8.6-11.4M5.1-7.15a4.655,4.655,0,0,1,.65-2.5A2.233,2.233,0,0,1,7.5-10.7,1.908,1.908,0,0,1,9.15-9.65a4.188,4.188,0,0,1,.75,2.5,4.05,4.05,0,0,1-.75,2.5A1.9,1.9,0,0,1,7.5-3.55a2.216,2.216,0,0,1-1.75-1.1A4.5,4.5,0,0,1,5.1-7.15Z" fill="#fff"/>
            <path id="패스_1128" data-name="패스 1128" d="M-5.1-7.15a4.4,4.4,0,0,0-.7-2.5A2.057,2.057,0,0,0-7.55-10.7a2.022,2.022,0,0,0-1.7,1.05,4.4,4.4,0,0,0-.7,2.5,4.255,4.255,0,0,0,.7,2.5,2.011,2.011,0,0,0,1.7,1.1A2.043,2.043,0,0,0-5.8-4.65a4.255,4.255,0,0,0,.7-2.5M5.75-9.65a4.655,4.655,0,0,0-.65,2.5,4.5,4.5,0,0,0,.65,2.5A2.216,2.216,0,0,0,7.5-3.55a1.9,1.9,0,0,0,1.65-1.1,4.05,4.05,0,0,0,.75-2.5,4.188,4.188,0,0,0-.75-2.5A1.908,1.908,0,0,0,7.5-10.7,2.233,2.233,0,0,0,5.75-9.65Z" fill="#bf7958"/>
            <path id="패스_1129" data-name="패스 1129" d="M3.65-4A2.108,2.108,0,0,0,2.6-5.7,4.4,4.4,0,0,0,.15-6.35a4.307,4.307,0,0,0-2.4.65A2.152,2.152,0,0,0-3.2-4a1.987,1.987,0,0,0,.95,1.6,3.886,3.886,0,0,0,2.4.75A3.967,3.967,0,0,0,2.6-2.4,1.959,1.959,0,0,0,3.65-4Z" fill="#e7b687"/>
          </g>
        </g>
        <g id="그룹_1539" data-name="그룹 1539">
          <g id="그룹_1538" data-name="그룹 1538">
            <path id="패스_1130" data-name="패스 1130" d="M-11.95-16.2l-.95,3.45,9.05,2.4,1-3.45Z" fill="#bf7958"/>
          </g>
        </g>
        <g id="그룹_1541" data-name="그룹 1541">
          <g id="그룹_1540" data-name="그룹 1540">
            <path id="패스_1131" data-name="패스 1131" d="M14.35-12.85l-.5-3.55L4.5-15.05l.6,3.55Z" fill="#bf7958"/>
          </g>
        </g>
        <g id="그룹_1543" data-name="그룹 1543">
          <g id="그룹_1542" data-name="그룹 1542">
            <path id="패스_1132" data-name="패스 1132" d="M1.1,4.65l.5-1.9L-6.05.7l-.5,1.95Z" fill="#bf7958"/>
          </g>
        </g>
        <g id="그룹_1545" data-name="그룹 1545">
          <g id="그룹_1544" data-name="그룹 1544">
            <path id="패스_1133" data-name="패스 1133" d="M-22.3-20.5l1.85,15.9a2.466,2.466,0,0,0,.95,1.7,2.315,2.315,0,0,0,1.8.45h.05a2.191,2.191,0,0,0,1.6-.9,2.658,2.658,0,0,0,.5-1.85l-1.9-15.9a2.4,2.4,0,0,0-.95-1.65,2.507,2.507,0,0,0-1.75-.55h-.05a2.457,2.457,0,0,0-1.6,1,2.156,2.156,0,0,0-.5,1.8m40.75-2.25a2.4,2.4,0,0,0-.95,1.65L15.65-5.2a2.658,2.658,0,0,0,.5,1.85,2.036,2.036,0,0,0,1.55.9h.05a2.315,2.315,0,0,0,1.8-.45,2.466,2.466,0,0,0,.95-1.7l1.9-15.9a2.156,2.156,0,0,0-.5-1.8,2.483,2.483,0,0,0-1.65-1H20.2A2.507,2.507,0,0,0,18.45-22.75Z" fill="#bf7958"/>
          </g>
        </g>
      </g>
      <g id="그룹_1549" data-name="그룹 1549" transform="matrix(0.866, 0.5, -0.5, 0.866, 1036.363, -195.048)">
        <g id="그룹_1548" data-name="그룹 1548">
          <g id="그룹_1547" data-name="그룹 1547">
            <path id="패스_1134" data-name="패스 1134" d="M-9.2-7.6l-.05.95q.5,6.2,3.8,9.6-8.7-6.45-3.8-10.6Z" fill="#f0c49a"/>
            <path id="패스_1135" data-name="패스 1135" d="M7,1.65Q6.95,3,5.5,3L-5.45,2.95q-3.3-3.4-3.8-9.6l.05-.95-.05-.05q-.05-1.65,0-3.5v-.4q0-1.4,2.15-1.8A26.274,26.274,0,0,1-.95-14Q7.55-13.95,7,.75Z" fill="#ffd7b1"/>
          </g>
        </g>
      </g>
      <g id="그룹_1552" data-name="그룹 1552" transform="translate(974.913 -156.748) rotate(-150.001)">
        <g id="그룹_1551" data-name="그룹 1551">
          <g id="그룹_1550" data-name="그룹 1550">
            <path id="패스_1136" data-name="패스 1136" d="M-9.2-7.6l-.05.95q.5,6.2,3.8,9.6-8.7-6.45-3.8-10.6Z" fill="#f0c49a"/>
            <path id="패스_1137" data-name="패스 1137" d="M7,1.65Q6.95,3,5.5,3L-5.45,2.95q-3.3-3.4-3.8-9.6l.05-.95-.05-.05q-.05-1.65,0-3.5v-.4q0-1.4,2.15-1.8A26.275,26.275,0,0,1-.95-14Q7.55-13.95,7,.75Z" fill="#ffd7b1"/>
          </g>
        </g>
      </g>
    </g>
    <g id="그룹_14811" data-name="그룹 14811" transform="translate(-2581.851 124.372)">
      <g id="back_FL_FL_FL_FL_FL_FL_FL_FL_FL_FL_FL_FL_FL_FL_FL_FL_FL_FL_FL_FL_FL_FL_FL_FL_FL_FL_FL_FL_FL_FL_FL" transform="translate(2871.884 421.202) rotate(-12.442)">
        <g id="그룹_5256" data-name="그룹 5256">
          <g id="그룹_5255" data-name="그룹 5255">
            <path id="패스_4013" data-name="패스 4013" d="M18.85-55.05q-7.8-6.1-18.85-6.1a30.009,30.009,0,0,0-18.9,6.1,22.354,22.354,0,0,0-4.9,5.2,23.913,23.913,0,0,0-1.25,7.8v.6a51.344,51.344,0,0,0,.35,5.15l.8,12.15q0,.6.05,1.2A22.178,22.178,0,0,0-22.2-16.1,23.141,23.141,0,0,0-17-8.4,22.863,22.863,0,0,0-.15-1.4a22.806,22.806,0,0,0,16.8-7,24.423,24.423,0,0,0,5.5-7.85,18.177,18.177,0,0,0,1-3.15A64.829,64.829,0,0,0,24.9-35.8a27.738,27.738,0,0,1,.05-2.9,3.366,3.366,0,0,1,.05-.55q.05-1.3.05-2.65v-.15a23.913,23.913,0,0,0-1.25-7.8A23.354,23.354,0,0,0,18.85-55.05Z" fill="#bf7958"/>
            <path id="패스_4014" data-name="패스 4014" d="M0-61.15q11.05,0,18.85,6.1a23.354,23.354,0,0,1,4.95,5.2,24.353,24.353,0,0,0-6.1-9.55A24.382,24.382,0,0,0,0-66.6a24.55,24.55,0,0,0-17.75,7.2,24.319,24.319,0,0,0-6.05,9.55,22.354,22.354,0,0,1,4.9-5.2A30.009,30.009,0,0,1,0-61.15Z" fill="#db855c"/>
          </g>
        </g>
      </g>
      <g id="그룹_5826" data-name="그룹 5826" transform="translate(2895.483 417.702) rotate(-90)">
        <g id="그룹_5825" data-name="그룹 5825">
          <g id="그룹_5824" data-name="그룹 5824">
            <path id="패스_4414" data-name="패스 4414" d="M5.3,14l.15-5h-9.4v5H5.3Z" fill="#ffd7b1"/>
            <path id="패스_4415" data-name="패스 4415" d="M10.9,23l.1-3a7.364,7.364,0,0,1-5.75-6h-9.2v9Z" fill="#bf7958"/>
            <path id="패스_4416" data-name="패스 4416" d="M5.9-.2A5.31,5.31,0,0,0,4-4.3,6.475,6.475,0,0,0-.55-6,6.59,6.59,0,0,0-5.1-4.3,5.31,5.31,0,0,0-7-.2Q-4.05,2.2-3.95,9h9.4Z" fill="#eea160"/>
          </g>
        </g>
      </g>
      <g id="그룹_5831" data-name="그룹 5831" transform="matrix(-0.632, -0.775, 0.775, -0.632, 2871.083, 412.252)">
        <g id="그룹_5828" data-name="그룹 5828">
          <g id="그룹_5827" data-name="그룹 5827">
            <path id="패스_4417" data-name="패스 4417" d="M3.6-13.9a12.155,12.155,0,0,0,1.25-3.4q.65-3.55.9-5.55A2.269,2.269,0,0,1,8.1-25a4.982,4.982,0,0,1,3.7,1.2,5,5,0,0,1,1.75,3.4A23.665,23.665,0,0,1,12.4-10.15Z" fill="#ffd7b1"/>
            <path id="패스_4418" data-name="패스 4418" d="M12.4-10.15A26.866,26.866,0,0,1,9.4-4,38.968,38.968,0,0,1,2.6,3.75,5.094,5.094,0,0,1-1.05,5,4.982,4.982,0,0,1-4.6,3.4,4.592,4.592,0,0,1-5.95-.15,4.8,4.8,0,0,1-4.3-3.6,26.214,26.214,0,0,0,.3-8.75,28.589,28.589,0,0,0,3.6-13.9Z" fill="#79adcb"/>
          </g>
        </g>
        <g id="그룹_5830" data-name="그룹 5830">
          <g id="그룹_5829" data-name="그룹 5829">
            <path id="패스_4419" data-name="패스 4419" d="M1.6-12.25l1.3-3.4L14-11.45,12.85-7.5Z" fill="#5a93b4"/>
          </g>
        </g>
      </g>
      <g id="그룹_5836" data-name="그룹 5836" transform="matrix(-0.912, -0.41, 0.41, -0.912, 2886.333, 385.852)">
        <g id="그룹_5833" data-name="그룹 5833">
          <g id="그룹_5832" data-name="그룹 5832">
            <path id="패스_4420" data-name="패스 4420" d="M3.6,13.9a12.155,12.155,0,0,1,1.25,3.4q.65,3.55.9,5.55A2.269,2.269,0,0,0,8.1,25a5.061,5.061,0,0,0,5.45-4.6A23.665,23.665,0,0,0,12.4,10.15Z" fill="#ffd7b1"/>
            <path id="패스_4421" data-name="패스 4421" d="M12.4,10.15A26.866,26.866,0,0,0,9.4,4,38.968,38.968,0,0,0,2.6-3.75,5.094,5.094,0,0,0-1.05-5,4.982,4.982,0,0,0-4.6-3.4,4.592,4.592,0,0,0-5.95.15,4.8,4.8,0,0,0-4.3,3.6,26.215,26.215,0,0,1,.3,8.75,28.59,28.59,0,0,1,3.6,13.9Z" fill="#79adcb"/>
          </g>
        </g>
        <g id="그룹_5835" data-name="그룹 5835">
          <g id="그룹_5834" data-name="그룹 5834">
            <path id="패스_4422" data-name="패스 4422" d="M1.6,12.25l1.3,3.4L14,11.45,12.85,7.5Z" fill="#5a93b4"/>
          </g>
        </g>
      </g>
      <g id="그룹_5839" data-name="그룹 5839" transform="matrix(0, -1, 1, 0, 2900.283, 401.752)">
        <g id="그룹_5838" data-name="그룹 5838">
          <g id="그룹_5837" data-name="그룹 5837">
            <path id="패스_4423" data-name="패스 4423" d="M16,20.05q-4.993-1.93-4.5-6.8L-.3,11.6l-1.75,8.75L15.45,23Z" fill="#bf7958"/>
            <path id="패스_4424" data-name="패스 4424" d="M.1,7.85,11.05,6.7A18.2,18.2,0,0,0,2-5.15,5.619,5.619,0,0,0-2.55-5.8a5.676,5.676,0,0,0-3.6,2.7A5.921,5.921,0,0,0-6.95.75Q-.4,3.128.1,7.85Z" fill="#eea160"/>
            <path id="패스_4425" data-name="패스 4425" d="M11.5,13.25a27.482,27.482,0,0,0-.45-6.55L.1,7.85A9.38,9.38,0,0,1-.3,11.6Z" fill="#ffd7b1"/>
          </g>
        </g>
      </g>
      <g id="그룹_5850" data-name="그룹 5850" transform="matrix(0.5, -0.866, 0.866, 0.5, 2894.683, 408.702)">
        <g id="그룹_5841" data-name="그룹 5841">
          <g id="그룹_5840" data-name="그룹 5840">
            <path id="패스_4426" data-name="패스 4426" d="M-15.5-9.45l.2.8A38.84,38.84,0,0,1-13.75,3.4q6.5-7.05-1.75-12.85m29.85.8.2-.8Q6.3-3.65,12.8,3.4A38.84,38.84,0,0,1,14.35-8.65Z" fill="#5a93b4"/>
            <path id="패스_4427" data-name="패스 4427" d="M12.2,8a16.17,16.17,0,0,0,.6-4.6H-13.75a16.17,16.17,0,0,0,.6,4.6Z" fill="#eea160"/>
            <path id="패스_4428" data-name="패스 4428" d="M14.55-9.45l-.2.8a26.742,26.742,0,0,1,3.4-7.15q1-5-2.05-5.2H-16.15q-3.65-.2-2.6,5.2A25.865,25.865,0,0,1-15.3-8.65l-.2-.8q8.25,5.8,1.75,12.85H12.8Q6.3-3.65,14.55-9.45m-5.05.4q0,.8-2.9,1.3A33.471,33.471,0,0,1-.5-7.1a33.19,33.19,0,0,1-7.05-.65q-2.9-.5-2.9-1.3,0-.85,2.9-1.5a42.862,42.862,0,0,1,7.05-.5,43.227,43.227,0,0,1,7.1.5Q9.5-9.9,9.5-9.05Z" fill="#79adcb"/>
            <path id="패스_4429" data-name="패스 4429" d="M6.6-7.75q2.9-.5,2.9-1.3,0-.85-2.9-1.5a43.227,43.227,0,0,0-7.1-.5,42.862,42.862,0,0,0-7.05.5q-2.9.65-2.9,1.5,0,.8,2.9,1.3A33.19,33.19,0,0,0-.5-7.1,33.471,33.471,0,0,0,6.6-7.75Z" fill="#69a1c2"/>
          </g>
        </g>
        <g id="그룹_5843" data-name="그룹 5843">
          <g id="그룹_5842" data-name="그룹 5842">
            <path id="패스_4430" data-name="패스 4430" d="M14,5V0H-14V5Z" fill="#bf7958"/>
          </g>
        </g>
        <g id="그룹_5845" data-name="그룹 5845">
          <g id="그룹_5844" data-name="그룹 5844">
            <path id="패스_4431" data-name="패스 4431" d="M12.8,12.75h.05a2.154,2.154,0,0,0,1.65-.7,1.954,1.954,0,0,0,.45-1.75l-.9-5.55H9l.9,5.55a3.229,3.229,0,0,0,1,1.75A2.914,2.914,0,0,0,12.8,12.75Z" fill="#bf7958"/>
          </g>
        </g>
        <g id="그룹_5847" data-name="그룹 5847">
          <g id="그룹_5846" data-name="그룹 5846">
            <path id="패스_4432" data-name="패스 4432" d="M10-22a8.335,8.335,0,0,0-3.05-6.45A11.351,11.351,0,0,0-.5-31a11.351,11.351,0,0,0-7.45,2.55A8.335,8.335,0,0,0-11-22a2.544,2.544,0,0,0,.05.5,7.813,7.813,0,0,0,3,5.8A10.959,10.959,0,0,0-.5-13a10.959,10.959,0,0,0,7.45-2.7,7.813,7.813,0,0,0,3-5.8A2.544,2.544,0,0,0,10-22Z" fill="#f0c49a"/>
          </g>
        </g>
        <g id="그룹_5849" data-name="그룹 5849">
          <g id="그룹_5848" data-name="그룹 5848">
            <path id="패스_4433" data-name="패스 4433" d="M-11.9-25-16-21.25A84.127,84.127,0,0,0,7.95,4L12,.3Q-1.25-9.2-11.9-25Z" fill="#bf7958"/>
          </g>
        </g>
      </g>
      <g id="그룹_5853" data-name="그룹 5853" transform="matrix(0.866, -0.5, 0.5, 0.866, 2881.634, 402.052)">
        <g id="그룹_5852" data-name="그룹 5852">
          <g id="그룹_5851" data-name="그룹 5851">
            <path id="패스_4434" data-name="패스 4434" d="M13.407-6.868A29.38,29.38,0,0,0,0-9.673a30.286,30.286,0,0,0-13.549,2.8Q-19.082-3.992-19.082,0t5.533,6.8A29.646,29.646,0,0,0,0,9.673,28.762,28.762,0,0,0,13.407,6.8q5.675-2.8,5.675-6.8T13.407-6.868Z" fill="url(#radial-gradient)"/>
          </g>
        </g>
      </g>
      <g id="그룹_5856" data-name="그룹 5856" transform="translate(2885.083 364.802) rotate(-165.001)">
        <g id="그룹_5855" data-name="그룹 5855">
          <g id="그룹_5854" data-name="그룹 5854">
            <path id="패스_4435" data-name="패스 4435" d="M-8.35,7.6l-.05-.95A13.422,13.422,0,0,1-3.8-3Q-13.2,3.55-8.4,7.65Z" fill="#f0c49a"/>
            <path id="패스_4436" data-name="패스 4436" d="M4.2-3h-8A13.422,13.422,0,0,0-8.4,6.65l.05.95-.05.05q-.05,1.65,0,3.55v.35q0,1.45,2.05,1.85a26.94,26.94,0,0,0,6,.6Q7.05,13.95,4.2-3Z" fill="#ffd7b1"/>
          </g>
        </g>
      </g>
      <g id="그룹_5859" data-name="그룹 5859" transform="matrix(0.139, -0.99, 0.99, 0.139, 2850.833, 417.102)">
        <g id="그룹_5858" data-name="그룹 5858">
          <g id="그룹_5857" data-name="그룹 5857">
            <path id="패스_4437" data-name="패스 4437" d="M-6.217-7.6l-.037.95Q-5.882-.45-2.829,3q-7-6.55-3.425-10.65Z" fill="#f0c49a"/>
            <path id="패스_4438" data-name="패스 4438" d="M3.127,3H-2.829Q-5.882-.45-6.254-6.65l.037-.95-.037-.05q-.037-1.65,0-3.55v-.35A1.788,1.788,0,0,1-4.728-13.4,15.145,15.145,0,0,1-.261-14Q5.249-13.95,3.127,3Z" fill="#ffd7b1"/>
          </g>
        </g>
      </g>
      <g id="그룹_5880" data-name="그룹 5880" transform="matrix(0.866, -0.5, 0.5, 0.866, 2872.233, 395.302)">
        <g id="그룹_5861" data-name="그룹 5861">
          <g id="그룹_5860" data-name="그룹 5860">
            <path id="패스_4439" data-name="패스 4439" d="M18-19.5a7.624,7.624,0,0,0-5.65,2.4A7.928,7.928,0,0,0,10-11.35,7.928,7.928,0,0,0,12.35-5.6,7.624,7.624,0,0,0,18-3.2a7.624,7.624,0,0,0,5.65-2.4A7.928,7.928,0,0,0,26-11.35a7.928,7.928,0,0,0-2.35-5.75A7.624,7.624,0,0,0,18-19.5M18-6.45A4.55,4.55,0,0,1,14.6-7.9a4.688,4.688,0,0,1-1.4-3.45,4.909,4.909,0,0,1,1.4-3.45A4.55,4.55,0,0,1,18-16.25a4.712,4.712,0,0,1,3.45,1.45,5.006,5.006,0,0,1,1.35,3.45A4.779,4.779,0,0,1,21.45-7.9,4.712,4.712,0,0,1,18-6.45Z" fill="#ffd7b1"/>
            <path id="패스_4440" data-name="패스 4440" d="M14.6-7.9A4.55,4.55,0,0,0,18-6.45,4.712,4.712,0,0,0,21.45-7.9a4.779,4.779,0,0,0,1.35-3.45,5.006,5.006,0,0,0-1.35-3.45A4.712,4.712,0,0,0,18-16.25a4.55,4.55,0,0,0-3.4,1.45,4.909,4.909,0,0,0-1.4,3.45A4.688,4.688,0,0,0,14.6-7.9Z" fill="#e7b687"/>
          </g>
        </g>
        <g id="그룹_5863" data-name="그룹 5863">
          <g id="그룹_5862" data-name="그룹 5862">
            <path id="패스_4441" data-name="패스 4441" d="M-24.65-17.1A7.928,7.928,0,0,0-27-11.35,7.928,7.928,0,0,0-24.65-5.6,7.624,7.624,0,0,0-19-3.2a7.731,7.731,0,0,0,5.65-2.4A7.928,7.928,0,0,0-11-11.35a7.928,7.928,0,0,0-2.35-5.75A7.731,7.731,0,0,0-19-19.5a7.624,7.624,0,0,0-5.65,2.4m2.25,9.2a4.779,4.779,0,0,1-1.35-3.45A5.006,5.006,0,0,1-22.4-14.8,4.55,4.55,0,0,1-19-16.25a4.448,4.448,0,0,1,3.4,1.45,4.909,4.909,0,0,1,1.4,3.45A4.688,4.688,0,0,1-15.6-7.9,4.448,4.448,0,0,1-19-6.45,4.55,4.55,0,0,1-22.4-7.9Z" fill="#ffd7b1"/>
            <path id="패스_4442" data-name="패스 4442" d="M-23.75-11.35A4.779,4.779,0,0,0-22.4-7.9,4.55,4.55,0,0,0-19-6.45,4.448,4.448,0,0,0-15.6-7.9a4.688,4.688,0,0,0,1.4-3.45,4.909,4.909,0,0,0-1.4-3.45A4.448,4.448,0,0,0-19-16.25a4.55,4.55,0,0,0-3.4,1.45A5.006,5.006,0,0,0-23.75-11.35Z" fill="#e7b687"/>
          </g>
        </g>
        <g id="그룹_5865" data-name="그룹 5865">
          <g id="그룹_5864" data-name="그룹 5864">
            <path id="패스_4443" data-name="패스 4443" d="M18.1-3.7l2.3-22.7H-21.45l2.3,22.7Q-17.1,3.75-8.7,6.6A22.217,22.217,0,0,0-.55,8a22.359,22.359,0,0,0,8.2-1.4Q16.05,3.75,18.1-3.7Z" fill="#ffd7b1"/>
          </g>
        </g>
        <g id="그룹_5867" data-name="그룹 5867">
          <g id="그룹_5866" data-name="그룹 5866">
            <path id="패스_4444" data-name="패스 4444" d="M-.6-2.45Q-3.5-2.5-5.5.6H4.45Q2.3-2.5-.6-2.45Z" fill="#bf7958"/>
            <path id="패스_4445" data-name="패스 4445" d="M-5.5.6q2,3.1,4.9,3.05Q2.3,3.7,4.45.6H-5.5M1.85-4.9A1.989,1.989,0,0,0,2.9-6.55,2.078,2.078,0,0,0,1.85-8.2,4.4,4.4,0,0,0-.6-8.85a4.215,4.215,0,0,0-2.35.65,2.094,2.094,0,0,0-1,1.65,2,2,0,0,0,1,1.65A3.807,3.807,0,0,0-.6-4.15,3.967,3.967,0,0,0,1.85-4.9Z" fill="#e7b687"/>
          </g>
        </g>
        <g id="그룹_5869" data-name="그룹 5869">
          <g id="그룹_5868" data-name="그룹 5868">
            <path id="패스_4446" data-name="패스 4446" d="M-13.1-9.3v-.35a4.34,4.34,0,0,1,1.15-3.05,3.874,3.874,0,0,1,2.3-1.2H-15.4a5.97,5.97,0,0,1,2.3,4.6m6.65,2.15a4.255,4.255,0,0,0,.7-2.5,4.492,4.492,0,0,0-.7-2.55A2.057,2.057,0,0,0-8.2-13.25,1.989,1.989,0,0,0-9.85-12.2a4.492,4.492,0,0,0-.7,2.55,4.255,4.255,0,0,0,.7,2.5A1.981,1.981,0,0,0-8.2-6.05,2.043,2.043,0,0,0-6.45-7.15Z" fill="#bf7958"/>
            <path id="패스_4447" data-name="패스 4447" d="M-9.25-13.95a1.644,1.644,0,0,0-.4.05,3.874,3.874,0,0,0-2.3,1.2A4.34,4.34,0,0,0-13.1-9.65v.35a4.254,4.254,0,0,0,1.15,2.65,3.848,3.848,0,0,0,3,1.35,3.549,3.549,0,0,0,2.8-1.35,4.178,4.178,0,0,0,1.2-3,4.239,4.239,0,0,0-1.2-3.05,3.663,3.663,0,0,0-2.8-1.25h-.3m3.5,4.3a4.255,4.255,0,0,1-.7,2.5A2.043,2.043,0,0,1-8.2-6.05a1.981,1.981,0,0,1-1.65-1.1,4.255,4.255,0,0,1-.7-2.5,4.492,4.492,0,0,1,.7-2.55A1.989,1.989,0,0,1-8.2-13.25,2.057,2.057,0,0,1-6.45-12.2,4.492,4.492,0,0,1-5.75-9.65Z" fill="#fff"/>
          </g>
        </g>
        <g id="그룹_5871" data-name="그룹 5871">
          <g id="그룹_5870" data-name="그룹 5870">
            <path id="패스_4448" data-name="패스 4448" d="M12.05-9.65v.35a6.033,6.033,0,0,1,2.25-4.6H8.6a3.874,3.874,0,0,1,2.3,1.2,4.34,4.34,0,0,1,1.15,3.05m-7.35,0a4.255,4.255,0,0,0,.7,2.5,2.011,2.011,0,0,0,1.7,1.1,2.011,2.011,0,0,0,1.7-1.1,4.255,4.255,0,0,0,.7-2.5,4.492,4.492,0,0,0-.7-2.55,2.022,2.022,0,0,0-1.7-1.05A2.022,2.022,0,0,0,5.4-12.2,4.492,4.492,0,0,0,4.7-9.65Z" fill="#bf7958"/>
            <path id="패스_4449" data-name="패스 4449" d="M8.6-13.9a1.644,1.644,0,0,0-.4-.05H7.9A3.663,3.663,0,0,0,5.1-12.7,4.239,4.239,0,0,0,3.9-9.65a4.178,4.178,0,0,0,1.2,3A3.549,3.549,0,0,0,7.9-5.3a3.848,3.848,0,0,0,3-1.35A4.254,4.254,0,0,0,12.05-9.3v-.35A4.34,4.34,0,0,0,10.9-12.7a3.874,3.874,0,0,0-2.3-1.2M5.4-7.15a4.255,4.255,0,0,1-.7-2.5,4.492,4.492,0,0,1,.7-2.55,2.022,2.022,0,0,1,1.7-1.05A2.022,2.022,0,0,1,8.8-12.2a4.492,4.492,0,0,1,.7,2.55,4.255,4.255,0,0,1-.7,2.5,2.011,2.011,0,0,1-1.7,1.1A2.011,2.011,0,0,1,5.4-7.15Z" fill="#fff"/>
          </g>
        </g>
        <g id="그룹_5873" data-name="그룹 5873">
          <g id="그룹_5872" data-name="그룹 5872">
            <path id="패스_4450" data-name="패스 4450" d="M13.8-16.3l-.9-2.25-9.1,2.4.75,1.9Z" fill="#bf7958"/>
          </g>
        </g>
        <g id="그룹_5875" data-name="그룹 5875">
          <g id="그룹_5874" data-name="그룹 5874">
            <path id="패스_4451" data-name="패스 4451" d="M-13.3-17.6l-.65,2.4,9.45.95.55-2.05Z" fill="#bf7958"/>
          </g>
        </g>
        <g id="그룹_5877" data-name="그룹 5877">
          <g id="그룹_5876" data-name="그룹 5876">
            <path id="패스_4452" data-name="패스 4452" d="M18.9-8.45l1.15-9.35q-11.6.55-24.35-8.3Q.45-11.75,18.9-8.45Z" fill="#db855c"/>
            <path id="패스_4453" data-name="패스 4453" d="M20.05-17.8l1.15-9.3H-22.2l.65,7.7q10.75-.2,17.25-6.7Q8.45-17.25,20.05-17.8Z" fill="#bf7958"/>
          </g>
        </g>
        <g id="그룹_5879" data-name="그룹 5879">
          <g id="그룹_5878" data-name="그룹 5878">
            <path id="패스_4454" data-name="패스 4454" d="M17.1-27.15a13.207,13.207,0,0,0-2-2.15Q9.55-34-.5-34t-15.55,4.65a2.563,2.563,0,0,0-.6.6,5.969,5.969,0,0,0-1.45,1.6,1.908,1.908,0,0,0-.15,1.95Q-11.8-28.9-.5-28.9q11.2,0,17.7,3.65A1.9,1.9,0,0,0,17.1-27.15Z" fill="#71a2be"/>
          </g>
        </g>
      </g>
    </g>
    <g id="그룹_14807" data-name="그룹 14807" transform="translate(-1615.495 -1029.899)">
      <g id="그룹_11920" data-name="그룹 11920" transform="translate(2058.942 1769.293) rotate(-6.242)">
        <g id="그룹_11919" data-name="그룹 11919">
          <g id="그룹_11918" data-name="그룹 11918">
            <path id="패스_8668" data-name="패스 8668" d="M11.75,7.25h2.2a8.892,8.892,0,0,1-4-3.35A40.214,40.214,0,0,0,4-3.35,6.206,6.206,0,0,0-.2-5,5.909,5.909,0,0,0-4.4-3.2,5.564,5.564,0,0,0-6,1,5.646,5.646,0,0,0-4.3,5.15a24.143,24.143,0,0,1,4,4.95,7.884,7.884,0,0,1,1.6,5.1l.45-1.15L3,10.7a9.625,9.625,0,0,0,4.45,1.5,9.774,9.774,0,0,0,.8-4.95Z" fill="#4c4eaa"/>
            <path id="패스_8669" data-name="패스 8669" d="M13.15,10.6l-.3-.8L2.55,16.5a24.412,24.412,0,0,1,.6,3.25A5.682,5.682,0,0,0,5.3,23.7,6.161,6.161,0,0,0,9.7,25a5.8,5.8,0,0,0,3.95-2.25,5.632,5.632,0,0,0,1.3-4.35,36.345,36.345,0,0,0-1.1-5.55Q13.55,11.7,13.15,10.6Z" fill="#3dbf9e"/>
            <path id="패스_8670" data-name="패스 8670" d="M12.85,9.8q-.5-1.3-1.1-2.55H8.25a9.774,9.774,0,0,1-.8,4.95A9.625,9.625,0,0,1,3,10.7L1.75,14.05q.45,1.2.8,2.45Z" fill="#29a686"/>
          </g>
        </g>
      </g>
      <g id="그룹_11923" data-name="그룹 11923" transform="translate(2070.542 1788.393) rotate(-16.21)">
        <g id="그룹_11922" data-name="그룹 11922">
          <g id="그룹_11921" data-name="그룹 11921">
            <path id="패스_8671" data-name="패스 8671" d="M-9.19,7.592l-.05-.949q.5-6.193,3.8-9.59Q-14.135,3.5-9.24,7.642Z" fill="#29a686"/>
            <path id="패스_8672" data-name="패스 8672" d="M6.993-1.648Q6.943-3,5.494-3l-10.938.05q-3.3,3.4-3.8,9.59l.05.949-.05.05q-.05,1.648,0,3.5v.4q0,1.4,2.148,1.8a26.247,26.247,0,0,0,6.144.649q8.491-.05,7.942-14.734Z" fill="#3dbf9e"/>
          </g>
        </g>
      </g>
      <g id="그룹_11926" data-name="그룹 11926" transform="translate(1523.042 1172.593)">
        <g id="그룹_11925" data-name="그룹 11925">
          <g id="그룹_11924" data-name="그룹 11924">
            <path id="패스_8673" data-name="패스 8673" d="M538.68,630.985l.728-4.989-5.95-.016A7.374,7.374,0,0,1,527,629.457l-.224,1.5,11.85.031Z" fill="#3dbf9e"/>
            <path id="패스_8674" data-name="패스 8674" d="M543.239,639.982l.447-2.994-5.056-6-11.85-.031-1.441,8.981Z" fill="#3c3e41"/>
            <path id="패스_8675" data-name="패스 8675" d="M540.923,616.816a4.745,4.745,0,0,0-1.426-4.1,5.818,5.818,0,0,0-4.353-1.708A7.326,7.326,0,0,0,530.4,612.7a6.033,6.033,0,0,0-2.374,4.087l-.514,9.183-.5,3.493a7.374,7.374,0,0,0,6.455-3.477l5.95.016Z" fill="#eea160"/>
          </g>
        </g>
      </g>
      <g id="그룹_11929" data-name="그룹 11929" transform="matrix(0.542, 0.84, -0.84, 0.542, 2047.343, 1784.243)">
        <g id="그룹_11928" data-name="그룹 11928">
          <g id="그룹_11927" data-name="그룹 11927">
            <path id="패스_8676" data-name="패스 8676" d="M15.566,18.418l-4.378-6.246L-.292,10.656l-1.7,8.038,17.025,2.434Z" fill="#3c3e41"/>
            <path id="패스_8677" data-name="패스 8677" d="M10.75,6.155l-5.934.6q-.344,3.766-5.107,3.9l11.48,1.516A23.868,23.868,0,0,0,10.75,6.155Z" fill="#3dbf9e"/>
            <path id="패스_8678" data-name="패스 8678" d="M-2.481-5.328a5.5,5.5,0,0,0-3.5,2.48,5.152,5.152,0,0,0-.632,4.18A5.388,5.388,0,0,0-3.94,4.685,7.166,7.166,0,0,1-1.119,7.349a7.384,7.384,0,0,1,.827,3.307q4.764-.138,5.107-3.9l5.934-.6q-1.7-6.935-8.8-10.885A5.744,5.744,0,0,0-2.481-5.328Z" fill="#eea160"/>
          </g>
        </g>
      </g>
      <g id="그룹_11932" data-name="그룹 11932" transform="translate(2040.042 1771.643) rotate(-158.997)">
        <g id="그룹_11931" data-name="그룹 11931">
          <g id="그룹_11930" data-name="그룹 11930">
            <path id="패스_8679" data-name="패스 8679" d="M11.749-7.249h2.2a8.891,8.891,0,0,0-4,3.35A40.21,40.21,0,0,1,4,3.35,6.2,6.2,0,0,1-.2,5,5.908,5.908,0,0,1-4.4,3.2,5.564,5.564,0,0,1-6-1a5.645,5.645,0,0,1,1.7-4.15A24.14,24.14,0,0,0-.3-10.1a7.883,7.883,0,0,0,1.6-5.1l.45,1.15L3-10.7a9.624,9.624,0,0,1,4.45-1.5,9.772,9.772,0,0,1,.8,4.949Z" fill="#4c4eaa"/>
            <path id="패스_8680" data-name="패스 8680" d="M13.149-10.6l-.3.8L2.55-16.5a24.409,24.409,0,0,0,.6-3.25A5.681,5.681,0,0,1,5.3-23.7,6.16,6.16,0,0,1,9.7-25a5.8,5.8,0,0,1,3.95,2.25,5.631,5.631,0,0,1,1.3,4.35,36.341,36.341,0,0,1-1.1,5.549Q13.549-11.7,13.149-10.6Z" fill="#3dbf9e"/>
            <path id="패스_8681" data-name="패스 8681" d="M12.849-9.8q-.5,1.3-1.1,2.55h-3.5a9.772,9.772,0,0,0-.8-4.949A9.624,9.624,0,0,0,3-10.7l-1.25-3.35q.45-1.2.8-2.45Z" fill="#29a686"/>
          </g>
        </g>
      </g>
      <g id="그룹_11935" data-name="그룹 11935" transform="matrix(-0.857, -0.515, 0.515, -0.857, 2024.742, 1787.093)">
        <g id="그룹_11934" data-name="그룹 11934">
          <g id="그룹_11933" data-name="그룹 11933">
            <path id="패스_8682" data-name="패스 8682" d="M-9.2-7.6l-.05.95q.5,6.2,3.8,9.6-8.7-6.448-3.8-10.6Z" fill="#29a686"/>
            <path id="패스_8683" data-name="패스 8683" d="M7,1.65Q6.948,3,5.5,3l-10.947-.05q-3.3-3.4-3.8-9.6l.05-.95-.05-.05q-.05-1.65,0-3.5v-.4q0-1.4,2.149-1.8A26.268,26.268,0,0,1-.95-14Q7.548-13.947,7,.75Z" fill="#3dbf9e"/>
          </g>
        </g>
      </g>
      <g id="그룹_11946" data-name="그룹 11946" transform="translate(1523.042 1172.593)">
        <g id="그룹_11937" data-name="그룹 11937">
          <g id="그룹_11936" data-name="그룹 11936">
            <path id="패스_8684" data-name="패스 8684" d="M540.773,618.07l-2.387.194-3.833-4.148-3.674,4.757-16.185,1.313a9.854,9.854,0,0,0,1.572,5.083l23.475-1.9A10.27,10.27,0,0,0,540.773,618.07Z" fill="#eea160"/>
            <path id="패스_8685" data-name="패스 8685" d="M542.583,599.284q.631-5.463-2.527-5.006l-27.163,2.2q-3.178.057-1.986,5.372l3.53,13.392.257,4.94,16.185-1.313,3.674-4.757,3.833,4.148,2.387-.194-.257-4.94Z" fill="#676ac6"/>
          </g>
        </g>
        <g id="그룹_11939" data-name="그룹 11939">
          <g id="그룹_11938" data-name="그룹 11938">
            <path id="패스_8686" data-name="패스 8686" d="M533.074,587.378a9.066,9.066,0,0,0-6.685-2.013,9.585,9.585,0,0,0-6.42,3.076,9.056,9.056,0,0,0-2.355,6.655,2.886,2.886,0,0,0,.069.5,7.911,7.911,0,0,0,2.948,5.573,8.786,8.786,0,0,0,6.693,2.163,9.307,9.307,0,0,0,6.412-3.226,8.419,8.419,0,0,0,2.346-6,2.928,2.928,0,0,0,.017-.5A8.542,8.542,0,0,0,533.074,587.378Z" fill="#29a686"/>
          </g>
        </g>
        <g id="그룹_11941" data-name="그룹 11941">
          <g id="그룹_11940" data-name="그룹 11940">
            <path id="패스_8687" data-name="패스 8687" d="M515.488,595.269l-1.592,3.737,11.764,6.662,1.589-3.787-11.761-6.612m22.737-1.844-10.976,8.456,1.969,3.5,10.974-8.506Z" fill="#4c4eaa"/>
            <path id="패스_8688" data-name="패스 8688" d="M529.218,605.378l-1.969-3.5-1.589,3.787Z" fill="#676ac6"/>
          </g>
        </g>
        <g id="그룹_11943" data-name="그룹 11943">
          <g id="그룹_11942" data-name="그룹 11942">
            <path id="패스_8689" data-name="패스 8689" d="M528.391,607.9q-.135-.089-.217.018a10.649,10.649,0,0,0-3.2,3.065l-.043,0a14.686,14.686,0,0,0-2.232,3.989.365.365,0,0,0,.013.249.458.458,0,0,0,.187.235.248.248,0,0,0,.217-.018,11.214,11.214,0,0,0,3.244-2.969l0-.05a12.8,12.8,0,0,0,2.184-4.085.366.366,0,0,0-.013-.25A.308.308,0,0,0,528.391,607.9Z" fill="#3dbf9e"/>
          </g>
        </g>
        <g id="그룹_11945" data-name="그룹 11945">
          <g id="그룹_11944" data-name="그룹 11944">
            <path id="패스_8690" data-name="패스 8690" d="M515.917,603.5a.942.942,0,0,0-.03.253,12.566,12.566,0,0,0,1.75,4.317l0,.05a13.689,13.689,0,0,0,2.709,3.488.624.624,0,0,0,.22.032.337.337,0,0,0,.255-.121.543.543,0,0,0,.074-.256,13.606,13.606,0,0,0-1.666-4.374,11.971,11.971,0,0,0-2.88-3.424.381.381,0,0,0-.222-.082A1.62,1.62,0,0,0,515.917,603.5Z" fill="#3dbf9e"/>
          </g>
        </g>
      </g>
      <g id="그룹_11949" data-name="그룹 11949" transform="translate(2050.492 1765.443)">
        <g id="그룹_11948" data-name="그룹 11948">
          <g id="그룹_11947" data-name="그룹 11947">
            <path id="패스_8691" data-name="패스 8691" d="M11.412-9.55A17.307,17.307,0,0,0,0-13.45a17.786,17.786,0,0,0-11.532,3.9A12.15,12.15,0,0,0-16.242,0a11.868,11.868,0,0,0,4.71,9.45A17.5,17.5,0,0,0,0,13.45a17.035,17.035,0,0,0,11.412-4A11.767,11.767,0,0,0,16.242,0,12.043,12.043,0,0,0,11.412-9.55Z" fill="url(#radial-gradient)"/>
          </g>
        </g>
      </g>
      <g id="그룹_11974" data-name="그룹 11974" transform="translate(2053.042 1761.343) rotate(3.227)">
        <g id="그룹_11951" data-name="그룹 11951">
          <g id="그룹_11950" data-name="그룹 11950">
            <path id="패스_8692" data-name="패스 8692" d="M-24.65-11.25A7.821,7.821,0,0,0-27-5.5,7.869,7.869,0,0,0-24.65.2a7.787,7.787,0,0,0,5.7,2.4A7.787,7.787,0,0,0-13.25.2,7.87,7.87,0,0,0-10.9-5.5a7.821,7.821,0,0,0-2.35-5.75,7.787,7.787,0,0,0-5.7-2.4,7.787,7.787,0,0,0-5.7,2.4m2.3,9.15a4.629,4.629,0,0,1-1.4-3.4A5.085,5.085,0,0,1-22.35-9a4.629,4.629,0,0,1,3.4-1.4A4.688,4.688,0,0,1-15.5-9a5.085,5.085,0,0,1,1.4,3.5,4.629,4.629,0,0,1-1.4,3.4A4.533,4.533,0,0,1-18.95-.6a4.478,4.478,0,0,1-3.4-1.5M12.6-11.25A7.821,7.821,0,0,0,10.25-5.5,7.87,7.87,0,0,0,12.6.2a7.787,7.787,0,0,0,5.7,2.4A7.787,7.787,0,0,0,24,.2a7.869,7.869,0,0,0,2.35-5.7A7.821,7.821,0,0,0,24-11.25a7.787,7.787,0,0,0-5.7-2.4,7.787,7.787,0,0,0-5.7,2.4M14.9-9a4.629,4.629,0,0,1,3.4-1.4A4.8,4.8,0,0,1,21.75-9a5.085,5.085,0,0,1,1.4,3.5,4.629,4.629,0,0,1-1.4,3.4A4.636,4.636,0,0,1,18.3-.6a4.478,4.478,0,0,1-3.4-1.5,4.55,4.55,0,0,1-1.45-3.4A4.992,4.992,0,0,1,14.9-9Z" fill="#3dbf9e"/>
            <path id="패스_8693" data-name="패스 8693" d="M-23.75-5.5a4.629,4.629,0,0,0,1.4,3.4,4.478,4.478,0,0,0,3.4,1.5A4.533,4.533,0,0,0-15.5-2.1a4.629,4.629,0,0,0,1.4-3.4A5.085,5.085,0,0,0-15.5-9a4.688,4.688,0,0,0-3.45-1.4A4.629,4.629,0,0,0-22.35-9a5.085,5.085,0,0,0-1.4,3.5M18.3-10.4A4.629,4.629,0,0,0,14.9-9a4.992,4.992,0,0,0-1.45,3.5A4.55,4.55,0,0,0,14.9-2.1,4.478,4.478,0,0,0,18.3-.6a4.636,4.636,0,0,0,3.45-1.5,4.629,4.629,0,0,0,1.4-3.4A5.085,5.085,0,0,0,21.75-9,4.8,4.8,0,0,0,18.3-10.4Z" fill="#29a686"/>
          </g>
        </g>
        <g id="그룹_11953" data-name="그룹 11953">
          <g id="그룹_11952" data-name="그룹 11952">
            <path id="패스_8694" data-name="패스 8694" d="M11.75,8q5.35-.7,6.1-5.85L20.5-24.2h-42L-18.25,8Z" fill="#3dbf9e"/>
          </g>
        </g>
        <g id="그룹_11955" data-name="그룹 11955">
          <g id="그룹_11954" data-name="그룹 11954">
            <path id="패스_8695" data-name="패스 8695" d="M26.6-36.25l-.2-.4-5.8.55q-.8,7.35-7.95,10.7,1.55-8.9-1.1-10.65-3.75-1.35-7.95-6Q1.65-44.5-.1-42.2A49.6,49.6,0,0,1-11.3-30.35a38.025,38.025,0,0,1-9.2-5q-1.85,4.15-1.95,4.55a18.716,18.716,0,0,0-.85,7,25.434,25.434,0,0,0,.35,2.6l3.9,5.6v-5.15l1.6-.3.3.1a32.066,32.066,0,0,0,12.8,2.3,32.066,32.066,0,0,0,12.8-2.3,17.217,17.217,0,0,0,2.5-1.35q4.65.55,9.35,1.55v5.8l1.2-2.45q4.25-8.3,4.65-9.4a18.341,18.341,0,0,0,.7-3.2v-.1A20.032,20.032,0,0,0,26.6-36.25Z" fill="#3c3e41"/>
            <path id="패스_8696" data-name="패스 8696" d="M26.6-36.25a21.813,21.813,0,0,0-2.35-6.15l-10.6,1.5q-4.75.5-10.9-5.95-2-2.3-3.45,0a29.205,29.205,0,0,1-10.7,11.5q-3.7,1.65-9.1,0a38.025,38.025,0,0,0,9.2,5A49.6,49.6,0,0,0-.1-42.2q1.75-2.3,3.7.15,4.2,4.65,7.95,6,2.65,1.75,1.1,10.65,7.15-3.35,7.95-10.7l5.8-.55Z" fill="#454a51"/>
          </g>
        </g>
        <g id="그룹_11957" data-name="그룹 11957">
          <g id="그룹_11956" data-name="그룹 11956">
            <path id="패스_8697" data-name="패스 8697" d="M2.25-2.4A1.959,1.959,0,0,0,3.3-4,2.078,2.078,0,0,0,2.25-5.65,4.4,4.4,0,0,0-.2-6.3a4.307,4.307,0,0,0-2.4.65A2.094,2.094,0,0,0-3.6-4a1.97,1.97,0,0,0,1,1.6,3.886,3.886,0,0,0,2.4.75A3.967,3.967,0,0,0,2.25-2.4Z" fill="#29a686"/>
          </g>
        </g>
        <g id="그룹_11959" data-name="그룹 11959">
          <g id="그룹_11958" data-name="그룹 11958">
            <path id="패스_8698" data-name="패스 8698" d="M16.65-4.35A6.325,6.325,0,0,0,15-8.7a5.763,5.763,0,0,0-4.3-1.8A5.336,5.336,0,0,0,6.6-8.7,6.124,6.124,0,0,0,4.85-4.35,6.124,6.124,0,0,0,6.6,0a5.272,5.272,0,0,0,4.1,1.85A5.688,5.688,0,0,0,15,0,6.325,6.325,0,0,0,16.65-4.35Z" fill="#29a686"/>
          </g>
        </g>
        <g id="그룹_11961" data-name="그룹 11961">
          <g id="그룹_11960" data-name="그룹 11960">
            <path id="패스_8699" data-name="패스 8699" d="M7.15-5.7a3.332,3.332,0,0,0,1,2.45,2.894,2.894,0,0,0,2.3,1.05A3.153,3.153,0,0,0,12.9-3.25a3.423,3.423,0,0,0,.95-2.45,3.72,3.72,0,0,0-.95-2.5,3.228,3.228,0,0,0-2.45-1,2.956,2.956,0,0,0-2.3,1A3.615,3.615,0,0,0,7.15-5.7Z" fill="#fc0"/>
          </g>
        </g>
        <g id="그룹_11963" data-name="그룹 11963">
          <g id="그룹_11962" data-name="그룹 11962">
            <path id="패스_8700" data-name="패스 8700" d="M-5.5-3.85A6.013,6.013,0,0,0-3.75-8.2,5.953,5.953,0,0,0-5.5-12.5a5.336,5.336,0,0,0-4.1-1.8,5.763,5.763,0,0,0-4.3,1.8,6.145,6.145,0,0,0-1.65,4.3A6.209,6.209,0,0,0-13.9-3.85,5.688,5.688,0,0,0-9.6-2,5.272,5.272,0,0,0-5.5-3.85Z" fill="#29a686"/>
          </g>
        </g>
        <g id="그룹_11965" data-name="그룹 11965">
          <g id="그룹_11964" data-name="그룹 11964">
            <path id="패스_8701" data-name="패스 8701" d="M-16.05-17.3l.9,3.5,9.1-2.5-.9-3.45Z" fill="#454a51"/>
          </g>
        </g>
        <g id="그룹_11967" data-name="그룹 11967">
          <g id="그룹_11966" data-name="그룹 11966">
            <path id="패스_8702" data-name="패스 8702" d="M15.55-10.7l.4-3.55L6.55-15.4,6.2-11.8Z" fill="#454a51"/>
          </g>
        </g>
        <g id="그룹_11969" data-name="그룹 11969">
          <g id="그룹_11968" data-name="그룹 11968">
            <path id="패스_8703" data-name="패스 8703" d="M-7.05-7.05a3.392,3.392,0,0,0,1-2.5,3.441,3.441,0,0,0-1-2.45,2.956,2.956,0,0,0-2.3-1,3.228,3.228,0,0,0-2.45,1,3.537,3.537,0,0,0-.95,2.45,3.487,3.487,0,0,0,.95,2.5A3.153,3.153,0,0,0-9.35-6,2.894,2.894,0,0,0-7.05-7.05Z" fill="#fc0"/>
          </g>
        </g>
        <g id="그룹_11971" data-name="그룹 11971">
          <g id="그룹_11970" data-name="그룹 11970">
            <path id="패스_8704" data-name="패스 8704" d="M-20.6-23.3h-.05a2.483,2.483,0,0,0-1.65,1,2.22,2.22,0,0,0-.5,1.8l1.3,10.55a2.433,2.433,0,0,0,.95,1.65,2.22,2.22,0,0,0,1.8.5h.05a2.145,2.145,0,0,0,1.6-.95,2.488,2.488,0,0,0,.5-1.8l-1.3-10.5a2.582,2.582,0,0,0-.95-1.7,2.507,2.507,0,0,0-1.75-.55m38.8.55a2.582,2.582,0,0,0-.95,1.7L15.8-9.15a2.658,2.658,0,0,0,.5,1.85,2.191,2.191,0,0,0,1.6.9h.05a2.315,2.315,0,0,0,1.8-.45,2.466,2.466,0,0,0,.95-1.7L22.15-20.5a2.22,2.22,0,0,0-.5-1.8,2.483,2.483,0,0,0-1.65-1h-.05A2.507,2.507,0,0,0,18.2-22.75Z" fill="#3c3e41"/>
          </g>
        </g>
        <g id="그룹_11973" data-name="그룹 11973">
          <g id="그룹_11972" data-name="그룹 11972">
            <path id="패스_8705" data-name="패스 8705" d="M3.4,1.3A7.3,7.3,0,0,0,.1.6a7.3,7.3,0,0,0-3.3.7q-1.65.85-1.6,2.1a1.959,1.959,0,0,0,.65,1.4,1.078,1.078,0,0,0,.65.3,1.546,1.546,0,0,0,.7-.15.723.723,0,0,0,.4-.5,1.167,1.167,0,0,1,.65-.5A4.33,4.33,0,0,1,.3,3.5a4.33,4.33,0,0,1,2.05.45.793.793,0,0,1,.5.4,1.386,1.386,0,0,0,.55.4,1.43,1.43,0,0,0,.75,0,1.032,1.032,0,0,0,.55-.4A1.685,1.685,0,0,0,5,3.4Q5.05,2.15,3.4,1.3Z" fill="#197e64"/>
          </g>
        </g>
      </g>
    </g>
    <g id="그룹_14805" data-name="그룹 14805" transform="translate(-1275.948 -1283.904)">
      <g id="그룹_13928" data-name="그룹 13928" transform="matrix(0.967, -0.255, 0.255, 0.967, 1445.884, 1874.451)">
        <g id="그룹_13925" data-name="그룹 13925">
          <g id="그룹_13924" data-name="그룹 13924">
            <path id="패스_10122" data-name="패스 10122" d="M13.15-10.6a38.487,38.487,0,0,1-3.2,6.7A20.982,20.982,0,0,1-.3-10.1a24.613,24.613,0,0,0,1.5-2.75,20.839,20.839,0,0,0,1.95-6.9A5.682,5.682,0,0,1,5.3-23.7,6.161,6.161,0,0,1,9.7-25a5.8,5.8,0,0,1,3.95,2.25,5.632,5.632,0,0,1,1.3,4.35,36.345,36.345,0,0,1-1.1,5.55Q13.55-11.7,13.15-10.6Z" fill="#bf7958"/>
            <path id="패스_10123" data-name="패스 10123" d="M-.2,5A5.909,5.909,0,0,1-4.4,3.2,5.565,5.565,0,0,1-6-1,5.646,5.646,0,0,1-4.3-5.15a24.143,24.143,0,0,0,4-4.95A20.982,20.982,0,0,0,9.95-3.9,40.214,40.214,0,0,1,4,3.35,6.206,6.206,0,0,1-.2,5Z" fill="#e7f3fc"/>
          </g>
        </g>
        <g id="그룹_13927" data-name="그룹 13927">
          <g id="그룹_13926" data-name="그룹 13926">
            <path id="패스_10124" data-name="패스 10124" d="M12.4-4.8,10.35-1.2-2.55-8.7l2-3.55Z" fill="#bfd4e5"/>
          </g>
        </g>
      </g>
      <g id="그룹_13931" data-name="그룹 13931" transform="matrix(0.999, 0.046, -0.046, 0.999, 1453.434, 1896.601)">
        <g id="그룹_13930" data-name="그룹 13930">
          <g id="그룹_13929" data-name="그룹 13929">
            <path id="패스_10125" data-name="패스 10125" d="M11.5,11.885a22.171,22.171,0,0,0-.45-5.875L-1.15,7.221A6.778,6.778,0,0,1-.3,10.405Z" fill="#4c4eaa"/>
            <path id="패스_10126" data-name="패스 10126" d="M15.45,20.631,16,17.985-1.4,15.339l-.65,2.915Z" fill="#eea160"/>
            <path id="패스_10127" data-name="패스 10127" d="M16,17.985l-4.5-6.1L-.3,10.405l-1.1,4.934Z" fill="#fff"/>
            <path id="패스_10128" data-name="패스 10128" d="M-2.55-5.2a5.654,5.654,0,0,0-3.6,2.422A4.818,4.818,0,0,0-6.8,1.3,5.318,5.318,0,0,0-4.05,4.575a7.22,7.22,0,0,1,2.9,2.6v.045L11.05,6.01Q9.3-.762,2-4.62A6.176,6.176,0,0,0-2.55-5.2Z" fill="#676ac6"/>
          </g>
        </g>
      </g>
      <g id="그룹_13934" data-name="그룹 13934" transform="matrix(-0.902, 0.431, -0.431, -0.902, 1437.834, 1907.701)">
        <g id="그룹_13933" data-name="그룹 13933">
          <g id="그룹_13932" data-name="그룹 13932">
            <path id="패스_10129" data-name="패스 10129" d="M11.5-11.885a22.171,22.171,0,0,1-.45,5.875L-1.15-7.221A6.777,6.777,0,0,0-.3-10.405Z" fill="#4c4eaa"/>
            <path id="패스_10130" data-name="패스 10130" d="M15.45-20.631,16-17.985-1.4-15.339l-.65-2.915Z" fill="#eea160"/>
            <path id="패스_10131" data-name="패스 10131" d="M16-17.985l-4.5,6.1L-.3-10.405l-1.1-4.933Z" fill="#fff"/>
            <path id="패스_10132" data-name="패스 10132" d="M-2.55,5.2a5.654,5.654,0,0,1-3.6-2.422A4.818,4.818,0,0,1-6.8-1.3,5.318,5.318,0,0,1-4.05-4.575a7.219,7.219,0,0,0,2.9-2.6v-.045L11.05-6.01Q9.3.762,2,4.62A6.176,6.176,0,0,1-2.55,5.2Z" fill="#676ac6"/>
          </g>
        </g>
      </g>
      <g id="그룹_13945" data-name="그룹 13945" transform="translate(1444.384 1900.501) rotate(-33.96)">
        <g id="그룹_13936" data-name="그룹 13936">
          <g id="그룹_13935" data-name="그룹 13935">
            <path id="패스_10133" data-name="패스 10133" d="M14.6,2.8V-2.15H-15.45V2.8Z" fill="#bfd4e5"/>
            <path id="패스_10134" data-name="패스 10134" d="M13.1,8a9.08,9.08,0,0,0,1.5-5.2H-15.45A9.08,9.08,0,0,0-13.95,8Z" fill="#676ac6"/>
            <path id="패스_10135" data-name="패스 10135" d="M17.8-15.8q1.05-5.4-2.6-5.2H-16.1q-3.65-.2-2.6,5.2l3.25,13.65H14.6Z" fill="#e7f3fc"/>
          </g>
        </g>
        <g id="그룹_13938" data-name="그룹 13938">
          <g id="그룹_13937" data-name="그룹 13937">
            <path id="패스_10136" data-name="패스 10136" d="M7.6-28.45A11.622,11.622,0,0,0,.05-31,11.622,11.622,0,0,0-7.5-28.45,8.282,8.282,0,0,0-10.6-22a2.544,2.544,0,0,0,.05.5A7.762,7.762,0,0,0-7.5-15.7,11.216,11.216,0,0,0,.05-13,11.216,11.216,0,0,0,7.6-15.7a7.762,7.762,0,0,0,3.05-5.8,2.544,2.544,0,0,0,.05-.5A8.282,8.282,0,0,0,7.6-28.45Z" fill="#a8603f"/>
          </g>
        </g>
        <g id="그룹_13940" data-name="그룹 13940">
          <g id="그룹_13939" data-name="그룹 13939">
            <path id="패스_10137" data-name="패스 10137" d="M-3.15-1.95-17.25-.7q.4,2.45.85,5.2L-3.95,3A49.617,49.617,0,0,0-3.15-1.95Z" fill="#d78b49"/>
            <path id="패스_10138" data-name="패스 10138" d="M-3.15-1.95A60.955,60.955,0,0,0-2.9-9.5q-6.75-4.25-10.7-12.9l-4.55-.85q-2.05,3.7.9,22.55Z" fill="#eea160"/>
          </g>
        </g>
        <g id="그룹_13942" data-name="그룹 13942">
          <g id="그룹_13941" data-name="그룹 13941">
            <path id="패스_10139" data-name="패스 10139" d="M16.85-.7,2.75-1.95A49.617,49.617,0,0,0,3.55,3L16,4.5Q16.45,1.75,16.85-.7Z" fill="#d78b49"/>
            <path id="패스_10140" data-name="패스 10140" d="M2.5-9.5a60.955,60.955,0,0,0,.25,7.55L16.85-.7q2.95-18.85.9-22.55l-4.55.85Q9.25-13.75,2.5-9.5Z" fill="#eea160"/>
          </g>
        </g>
        <g id="그룹_13944" data-name="그룹 13944">
          <g id="그룹_13943" data-name="그룹 13943">
            <path id="패스_10141" data-name="패스 10141" d="M-13.05-22l-2.05,3.6L-2-10.8.05-14.45-13.05-22m26.2,0L.05-14.45,2.1-10.8l13.1-7.6Z" fill="#bfd4e5"/>
            <path id="패스_10142" data-name="패스 10142" d="M2.1-10.8.05-14.45-2-10.8Z" fill="#e7f3fc"/>
          </g>
        </g>
      </g>
      <g id="그룹_13948" data-name="그룹 13948" transform="translate(1454.684 1847.551) rotate(86.041)">
        <g id="그룹_13947" data-name="그룹 13947">
          <g id="그룹_13946" data-name="그룹 13946">
            <path id="패스_10143" data-name="패스 10143" d="M-9.2,7.6l-.05-.95q.5-6.2,3.8-9.6-8.7,6.45-3.8,10.6Z" fill="#a8603f"/>
            <path id="패스_10144" data-name="패스 10144" d="M7-1.65Q6.95-3,5.5-3l-10.95.05q-3.3,3.4-3.8,9.6l.05.95-.05.05q-.05,1.65,0,3.5v.4q0,1.4,2.15,1.8A26.275,26.275,0,0,0-.95,14Q7.55,13.95,7-.75Z" fill="#bf7958"/>
          </g>
        </g>
      </g>
      <g id="그룹_13951" data-name="그룹 13951" transform="matrix(0.829, -0.559, 0.559, 0.829, 1434.384, 1883.201)">
        <g id="그룹_13950" data-name="그룹 13950">
          <g id="그룹_13949" data-name="그룹 13949">
            <path id="패스_10145" data-name="패스 10145" d="M14.245-9.55A25.185,25.185,0,0,0,0-13.45a25.925,25.925,0,0,0-14.4,3.9q-5.879,4-5.879,9.55T-14.4,9.45a25.439,25.439,0,0,0,14.4,4,24.717,24.717,0,0,0,14.245-4Q20.274,5.55,20.274,0T14.245-9.55Z" fill="url(#radial-gradient)"/>
          </g>
        </g>
      </g>
      <g id="그룹_13970" data-name="그룹 13970" transform="matrix(0.822, -0.57, 0.57, 0.822, 1429.934, 1878.601)">
        <g id="그룹_13953" data-name="그룹 13953">
          <g id="그룹_13952" data-name="그룹 13952">
            <path id="패스_10146" data-name="패스 10146" d="M12.65-35.05,9.75-39.6a115.175,115.175,0,0,0-27.35.9q-7.15,1-6.5,6.8l.2,1.7q.95-3.55,6.35-4.3A117.056,117.056,0,0,1,9.8-35.35l2.85.3m10.5,4.4.15-1.25q.7-5.65-5.45-6.8L13.3-34.95l4.6.45Q22.2-33.7,23.15-30.65Z" fill="#454a51"/>
            <path id="패스_10147" data-name="패스 10147" d="M17.9-34.5l-4.6-.45-.4.3-.25-.4-2.85-.3a117.056,117.056,0,0,0-27.35.85q-5.4.75-6.35,4.3l2.25,19.4q.55,4.35,5.7,4.35h31.1q5.2,0,5.7-4.35l2.3-19.85Q22.2-33.7,17.9-34.5Z" fill="#3c3e41"/>
          </g>
        </g>
        <g id="그룹_13955" data-name="그룹 13955">
          <g id="그룹_13954" data-name="그룹 13954">
            <path id="패스_10148" data-name="패스 10148" d="M-24.65-11.25A7.762,7.762,0,0,0-27-5.55,7.762,7.762,0,0,0-24.65.15,7.655,7.655,0,0,0-19,2.6,7.709,7.709,0,0,0-13.3.15,7.848,7.848,0,0,0-11-5.55a7.848,7.848,0,0,0-2.3-5.7A7.709,7.709,0,0,0-19-13.7a7.655,7.655,0,0,0-5.65,2.45m2.3,9.15a4.688,4.688,0,0,1-1.4-3.45A4.909,4.909,0,0,1-22.35-9,4.571,4.571,0,0,1-19-10.4,4.688,4.688,0,0,1-15.55-9a4.909,4.909,0,0,1,1.4,3.45,4.688,4.688,0,0,1-1.4,3.45A4.606,4.606,0,0,1-19-.65,4.494,4.494,0,0,1-22.35-2.1m34.7-9.15A7.762,7.762,0,0,0,10-5.55,7.762,7.762,0,0,0,12.35.15,7.655,7.655,0,0,0,18,2.6,7.709,7.709,0,0,0,23.7.15,7.848,7.848,0,0,0,26-5.55a7.848,7.848,0,0,0-2.3-5.7A7.709,7.709,0,0,0,18-13.7a7.655,7.655,0,0,0-5.65,2.45M14.65-9A4.571,4.571,0,0,1,18-10.4,4.8,4.8,0,0,1,21.45-9a4.909,4.909,0,0,1,1.4,3.45,4.688,4.688,0,0,1-1.4,3.45A4.712,4.712,0,0,1,18-.65,4.494,4.494,0,0,1,14.65-2.1,4.606,4.606,0,0,1,13.2-5.55,4.821,4.821,0,0,1,14.65-9Z" fill="#bf7958"/>
            <path id="패스_10149" data-name="패스 10149" d="M-23.75-5.55a4.688,4.688,0,0,0,1.4,3.45A4.494,4.494,0,0,0-19-.65,4.606,4.606,0,0,0-15.55-2.1a4.688,4.688,0,0,0,1.4-3.45A4.909,4.909,0,0,0-15.55-9,4.688,4.688,0,0,0-19-10.4,4.571,4.571,0,0,0-22.35-9a4.909,4.909,0,0,0-1.4,3.45M18-10.4A4.571,4.571,0,0,0,14.65-9,4.821,4.821,0,0,0,13.2-5.55,4.606,4.606,0,0,0,14.65-2.1,4.494,4.494,0,0,0,18-.65,4.712,4.712,0,0,0,21.45-2.1a4.688,4.688,0,0,0,1.4-3.45A4.909,4.909,0,0,0,21.45-9,4.8,4.8,0,0,0,18-10.4Z" fill="#a8603f"/>
          </g>
        </g>
        <g id="그룹_13957" data-name="그룹 13957">
          <g id="그룹_13956" data-name="그룹 13956">
            <path id="패스_10150" data-name="패스 10150" d="M11.7,8q5.4-.7,6.1-5.8l2.65-26H-21.4L-18.2,8Z" fill="#bf7958"/>
          </g>
        </g>
        <g id="그룹_13959" data-name="그룹 13959">
          <g id="그룹_13958" data-name="그룹 13958">
            <path id="패스_10151" data-name="패스 10151" d="M-12.95-8.15a4.387,4.387,0,0,0,1.1,3,3.848,3.848,0,0,0,3,1.35A3.6,3.6,0,0,0-6-5.15a4.276,4.276,0,0,0,1.15-3,4.276,4.276,0,0,0-1.15-3,3.653,3.653,0,0,0-2.85-1.3,3.913,3.913,0,0,0-3,1.3,4.387,4.387,0,0,0-1.1,3m2.5.15v-.25a2.875,2.875,0,0,1,.7-1.8,2.178,2.178,0,0,1,1.7-.8,2.229,2.229,0,0,1,1.75.8,2.875,2.875,0,0,1,.7,1.8V-8a2.814,2.814,0,0,1-.7,1.75,2.229,2.229,0,0,1-1.75.8,2.178,2.178,0,0,1-1.7-.8A2.814,2.814,0,0,1-10.45-8M5.1-5.15a3.946,3.946,0,0,0,3,1.35,3.368,3.368,0,0,0,2.8-1.35,4.091,4.091,0,0,0,1.25-3,4.091,4.091,0,0,0-1.25-3,3.417,3.417,0,0,0-2.8-1.3,4.015,4.015,0,0,0-3,1.3,4.387,4.387,0,0,0-1.1,3,4.387,4.387,0,0,0,1.1,3m3.55-4.9a2.747,2.747,0,0,1,.75,1.8V-8a2.691,2.691,0,0,1-.75,1.75A2.036,2.036,0,0,1,7-5.45a2.487,2.487,0,0,1-1.8-.8A2.966,2.966,0,0,1,4.55-8v-.35a2.9,2.9,0,0,1,.65-1.7,2.487,2.487,0,0,1,1.8-.8A2.036,2.036,0,0,1,8.65-10.05Z" fill="#fff"/>
            <path id="패스_10152" data-name="패스 10152" d="M-10.45-8.25V-8a2.814,2.814,0,0,0,.7,1.75,2.178,2.178,0,0,0,1.7.8,2.229,2.229,0,0,0,1.75-.8A2.814,2.814,0,0,0-5.6-8v-.25a2.875,2.875,0,0,0-.7-1.8,2.229,2.229,0,0,0-1.75-.8,2.178,2.178,0,0,0-1.7.8,2.875,2.875,0,0,0-.7,1.8m19.85,0a2.747,2.747,0,0,0-.75-1.8A2.036,2.036,0,0,0,7-10.85a2.487,2.487,0,0,0-1.8.8,2.9,2.9,0,0,0-.65,1.7V-8A2.966,2.966,0,0,0,5.2-6.25a2.487,2.487,0,0,0,1.8.8,2.036,2.036,0,0,0,1.65-.8A2.691,2.691,0,0,0,9.4-8Z" fill="#3c3e41"/>
          </g>
        </g>
        <g id="그룹_13961" data-name="그룹 13961">
          <g id="그룹_13960" data-name="그룹 13960">
            <path id="패스_10153" data-name="패스 10153" d="M-3.4-11.3l.2-2.85-10.8-.5-.15,2.85,10.75.5m6.3-2.85.2,2.85,10.75-.5-.15-2.85Z" fill="#3c3e41"/>
          </g>
        </g>
        <g id="그룹_13963" data-name="그룹 13963">
          <g id="그룹_13962" data-name="그룹 13962">
            <path id="패스_10154" data-name="패스 10154" d="M-.7-3.3a11.593,11.593,0,0,0-6,1.45,4.6,4.6,0,0,0-2.6,3.1.78.78,0,0,0,0,.55,1.332,1.332,0,0,0,.3.45.9.9,0,0,0,.5.25,14.5,14.5,0,0,0,8.1-1,14.425,14.425,0,0,0,8.1,1,.9.9,0,0,0,.5-.25,1.332,1.332,0,0,0,.3-.45,1.068,1.068,0,0,0,.05-.55A4.779,4.779,0,0,0,5.9-1.85,11.762,11.762,0,0,0-.1-3.3H-.7Z" fill="#3c3e41"/>
          </g>
        </g>
        <g id="그룹_13965" data-name="그룹 13965">
          <g id="그룹_13964" data-name="그룹 13964">
            <path id="패스_10155" data-name="패스 10155" d="M2.1-3.4a2,2,0,0,0,1-1.65,2.094,2.094,0,0,0-1-1.65A4.4,4.4,0,0,0-.35-7.35a4.307,4.307,0,0,0-2.4.65,2.094,2.094,0,0,0-1,1.65,2,2,0,0,0,1,1.65,3.886,3.886,0,0,0,2.4.75A3.967,3.967,0,0,0,2.1-3.4Z" fill="#955435"/>
          </g>
        </g>
        <g id="그룹_13967" data-name="그룹 13967">
          <g id="그룹_13966" data-name="그룹 13966">
            <path id="패스_10156" data-name="패스 10156" d="M-20.6-23.3h-.05a2.483,2.483,0,0,0-1.65,1,2.081,2.081,0,0,0-.5,1.75l1.9,16A2.5,2.5,0,0,0-20-2.9a2.315,2.315,0,0,0,1.8.45h.05a2.191,2.191,0,0,0,1.6-.9,2.57,2.57,0,0,0,.5-1.85l-1.9-15.9a2.4,2.4,0,0,0-.95-1.65,2.432,2.432,0,0,0-1.7-.55m38.5.55A2.471,2.471,0,0,0,17-21.1L15.1-5.2a2.57,2.57,0,0,0,.5,1.85,2.191,2.191,0,0,0,1.6.9h.05A2.233,2.233,0,0,0,19-2.9a2.433,2.433,0,0,0,.95-1.65l1.9-16a2.081,2.081,0,0,0-.5-1.75,2.483,2.483,0,0,0-1.65-1h-.05A2.507,2.507,0,0,0,17.9-22.75Z" fill="#3c3e41"/>
          </g>
        </g>
        <g id="그룹_13969" data-name="그룹 13969">
          <g id="그룹_13968" data-name="그룹 13968">
            <path id="패스_10157" data-name="패스 10157" d="M14.65-19.9q6.4-2.05,6.4-4.75,0-2.65-6.4-4.35A53.937,53.937,0,0,0-.7-30.45,56.955,56.955,0,0,0-16.05-28.1Q-22.4-26-22.4-23.35q0,2.7,6.35,4.35A52.1,52.1,0,0,0-.7-17.55,53.664,53.664,0,0,0,14.65-19.9Z" fill="#3c3e41"/>
          </g>
        </g>
      </g>
      <g id="그룹_13975" data-name="그룹 13975" transform="translate(1421.184 1897.701) rotate(77.242)">
        <g id="그룹_13972" data-name="그룹 13972">
          <g id="그룹_13971" data-name="그룹 13971">
            <path id="패스_10158" data-name="패스 10158" d="M13.15-10.6a38.486,38.486,0,0,1-3.2,6.7A20.981,20.981,0,0,1-.3-10.1a24.613,24.613,0,0,0,1.5-2.75,20.839,20.839,0,0,0,1.95-6.9A5.682,5.682,0,0,1,5.3-23.7,6.161,6.161,0,0,1,9.7-25a5.8,5.8,0,0,1,3.95,2.25,5.632,5.632,0,0,1,1.3,4.35,36.344,36.344,0,0,1-1.1,5.55Q13.55-11.7,13.15-10.6Z" fill="#bf7958"/>
            <path id="패스_10159" data-name="패스 10159" d="M-.2,5A5.909,5.909,0,0,1-4.4,3.2,5.564,5.564,0,0,1-6-1,5.646,5.646,0,0,1-4.3-5.15a24.142,24.142,0,0,0,4-4.95A20.981,20.981,0,0,0,9.95-3.9,40.214,40.214,0,0,1,4,3.35,6.206,6.206,0,0,1-.2,5Z" fill="#e7f3fc"/>
          </g>
        </g>
        <g id="그룹_13974" data-name="그룹 13974">
          <g id="그룹_13973" data-name="그룹 13973">
            <path id="패스_10160" data-name="패스 10160" d="M12.4-4.8,10.35-1.2-2.55-8.7l2-3.55Z" fill="#bfd4e5"/>
          </g>
        </g>
      </g>
      <g id="그룹_13978" data-name="그룹 13978" transform="translate(1441.784 1901.801) rotate(94.028)">
        <g id="그룹_13977" data-name="그룹 13977">
          <g id="그룹_13976" data-name="그룹 13976">
            <path id="패스_10161" data-name="패스 10161" d="M-9.2-7.6l-.05.95q.5,6.2,3.8,9.6-8.7-6.45-3.8-10.6Z" fill="#a8603f"/>
            <path id="패스_10162" data-name="패스 10162" d="M7,1.65Q6.95,3,5.5,3L-5.45,2.95q-3.3-3.4-3.8-9.6l.05-.95-.05-.05q-.05-1.65,0-3.5v-.4q0-1.4,2.15-1.8A26.274,26.274,0,0,1-.95-14Q7.55-13.95,7,.75Z" fill="#bf7958"/>
          </g>
        </g>
      </g>
    </g>
    <g id="그룹_14813" data-name="그룹 14813" transform="translate(-1909.252 1071.82)">
      <g id="back_FL_FL_FL_FL_FL_FL_FL_FL_FL_FL_FL_FL_FL_FL_FL_FL_FL_FL_FL_FL_FL_FL_FL" transform="translate(2196.533 -243.358)">
        <g id="그룹_2721" data-name="그룹 2721">
          <g id="그룹_2720" data-name="그룹 2720">
            <path id="패스_2024" data-name="패스 2024" d="M-16.4-34.65l-3.7-.2a1.421,1.421,0,0,0-1.1.4,1.6,1.6,0,0,0-.55,1.1,18.56,18.56,0,0,1-5.6,12.4,1.192,1.192,0,0,0-.45,1,1.5,1.5,0,0,0,.35,1.15v.05l.1-.1q7.75-6.75,10.4-14.85A2.523,2.523,0,0,1-16.4-34.65Z" fill="#454a51"/>
            <path id="패스_2025" data-name="패스 2025" d="M-5.95-34.05l-10.45-.6a2.523,2.523,0,0,0-.55.95q-2.65,8.1-10.4,14.85l-.1.1a1.9,1.9,0,0,0,1.05.55Q-9.9-16.45-4.5-31.85a2.073,2.073,0,0,0,.05-1,1.516,1.516,0,0,0-.55-.8A1.414,1.414,0,0,0-5.95-34.05Z" fill="#3c3e41"/>
          </g>
        </g>
        <g id="그룹_2723" data-name="그룹 2723">
          <g id="그룹_2722" data-name="그룹 2722">
            <path id="패스_2026" data-name="패스 2026" d="M17-33.7a2.523,2.523,0,0,0-.55-.95L6-34.05a1.414,1.414,0,0,0-.95.4,1.516,1.516,0,0,0-.55.8,2.073,2.073,0,0,0,.05,1q5.4,15.4,21.9,13.65a1.9,1.9,0,0,0,1.05-.55l-.1-.1Q19.65-25.6,17-33.7Z" fill="#3c3e41"/>
            <path id="패스_2027" data-name="패스 2027" d="M21.8-33.35a1.6,1.6,0,0,0-.55-1.1,1.421,1.421,0,0,0-1.1-.4l-3.7.2a2.523,2.523,0,0,1,.55.95q2.65,8.1,10.4,14.85l.1.1v-.05a1.5,1.5,0,0,0,.35-1.15,1.192,1.192,0,0,0-.45-1A18.56,18.56,0,0,1,21.8-33.35Z" fill="#454a51"/>
          </g>
        </g>
      </g>
      <g id="그룹_3782" data-name="그룹 3782" transform="matrix(-0.913, -0.407, 0.407, -0.913, 2188.983, -257.708)">
        <g id="그룹_3781" data-name="그룹 3781">
          <g id="그룹_3780" data-name="그룹 3780">
            <path id="패스_2859" data-name="패스 2859" d="M4.85-17.349q.65-3.55.9-5.5A2.338,2.338,0,0,1,8.15-25a4.91,4.91,0,0,1,3.65,1.2,4.885,4.885,0,0,1,1.8,3.35,25.146,25.146,0,0,1-.65,8.55L4.2-15.149A12.455,12.455,0,0,0,4.85-17.349Z" fill="#bf7958"/>
            <path id="패스_2860" data-name="패스 2860" d="M.3-8.75Q1.55-10.4,2.5-11.9l9.1,3.85A28.335,28.335,0,0,1,9.4-4,37.858,37.858,0,0,1,2.6,3.7,5.062,5.062,0,0,1-1.1,5,4.735,4.735,0,0,1-4.6,3.35,4.432,4.432,0,0,1-6-.2,4.573,4.573,0,0,1-4.3-3.6,28.25,28.25,0,0,0,.3-8.75Z" fill="#3dbf7b"/>
            <path id="패스_2861" data-name="패스 2861" d="M12.95-11.9l1.05.45L12.9-7.5l-1.3-.55L2.5-11.9l-.9-.35,1.3-3.4,1.3.5Z" fill="#25a863"/>
          </g>
        </g>
      </g>
      <g id="그룹_3785" data-name="그룹 3785" transform="matrix(0.112, -0.994, 0.994, 0.112, 2214.634, -269.208)">
        <g id="그룹_3784" data-name="그룹 3784">
          <g id="그룹_3783" data-name="그룹 3783">
            <path id="패스_2862" data-name="패스 2862" d="M4.85,17.35q.65,3.55.9,5.5A2.338,2.338,0,0,0,8.15,25a4.91,4.91,0,0,0,3.65-1.2,4.885,4.885,0,0,0,1.8-3.35,25.148,25.148,0,0,0-.65-8.55L4.2,15.15A12.456,12.456,0,0,1,4.85,17.35Z" fill="#bf7958"/>
            <path id="패스_2863" data-name="패스 2863" d="M.3,8.75Q1.55,10.4,2.5,11.9l9.1-3.85A28.336,28.336,0,0,0,9.4,4,37.86,37.86,0,0,0,2.6-3.7,5.062,5.062,0,0,0-1.1-5,4.736,4.736,0,0,0-4.6-3.35,4.432,4.432,0,0,0-6,.2,4.573,4.573,0,0,0-4.3,3.6,28.251,28.251,0,0,1,.3,8.75Z" fill="#3dbf7b"/>
            <path id="패스_2864" data-name="패스 2864" d="M12.95,11.9,14,11.45,12.9,7.5l-1.3.55L2.5,11.9l-.9.35,1.3,3.4,1.3-.5Z" fill="#25a863"/>
          </g>
        </g>
      </g>
      <g id="그룹_3788" data-name="그룹 3788" transform="matrix(0.457, -0.889, 0.889, 0.457, 2219.733, -248.708)">
        <g id="그룹_3787" data-name="그룹 3787">
          <g id="그룹_3786" data-name="그룹 3786">
            <path id="패스_2865" data-name="패스 2865" d="M16,20.05q-4.993-1.93-4.5-6.8L-.3,11.6l-1.2,5.8Z" fill="#bfd4e5"/>
            <path id="패스_2866" data-name="패스 2866" d="M15.45,23,16,20.05-1.5,17.4l-.55,2.95Z" fill="#fff"/>
            <path id="패스_2867" data-name="패스 2867" d="M.1,7.85,11.05,6.7A18.2,18.2,0,0,0,2-5.15,5.619,5.619,0,0,0-2.55-5.8a5.676,5.676,0,0,0-3.6,2.7A5.921,5.921,0,0,0-6.95.75Q-.4,3.128.1,7.85Z" fill="#676ac6"/>
            <path id="패스_2868" data-name="패스 2868" d="M11.5,13.25a27.482,27.482,0,0,0-.45-6.55L.1,7.85A9.38,9.38,0,0,1-.3,11.6Z" fill="#bf7958"/>
          </g>
        </g>
      </g>
      <g id="그룹_3791" data-name="그룹 3791" transform="matrix(0.306, 0.952, -0.952, 0.306, 2205.833, -243.658)">
        <g id="그룹_3790" data-name="그룹 3790">
          <g id="그룹_3789" data-name="그룹 3789">
            <path id="패스_2869" data-name="패스 2869" d="M16,20.05q-4.993-1.93-4.5-6.8L-.3,11.6l-1.2,5.8Z" fill="#bfd4e5"/>
            <path id="패스_2870" data-name="패스 2870" d="M15.45,23,16,20.05-1.5,17.4l-.55,2.95Z" fill="#fff"/>
            <path id="패스_2871" data-name="패스 2871" d="M.1,7.85,11.05,6.7A18.2,18.2,0,0,0,2-5.15,5.619,5.619,0,0,0-2.55-5.8a5.676,5.676,0,0,0-3.6,2.7A5.921,5.921,0,0,0-6.95.75Q-.4,3.128.1,7.85Z" fill="#676ac6"/>
            <path id="패스_2872" data-name="패스 2872" d="M11.5,13.25a27.482,27.482,0,0,0-.45-6.55L.1,7.85A9.38,9.38,0,0,1-.3,11.6Z" fill="#bf7958"/>
          </g>
        </g>
      </g>
      <g id="그룹_3796" data-name="그룹 3796" transform="matrix(0.841, -0.542, 0.542, 0.841, 2211.634, -245.108)">
        <g id="그룹_3793" data-name="그룹 3793">
          <g id="그룹_3792" data-name="그룹 3792">
            <path id="패스_2873" data-name="패스 2873" d="M-13.75,3.45A15.986,15.986,0,0,0-13.15,8h25.3a15.986,15.986,0,0,0,.6-4.55Z" fill="#676ac6"/>
            <path id="패스_2874" data-name="패스 2874" d="M-13.9-1.5h2.95q.75-4.25-4.55-8l.2.8a34.452,34.452,0,0,1,1.4,7.2M14.3-8.7l.2-.8Q9.2-5.75,10-1.5h2.95A36.772,36.772,0,0,1,14.3-8.7M9.45-9.1q0-.85-2.85-1.5a43.227,43.227,0,0,0-7.1-.5,43.227,43.227,0,0,0-7.1.5q-2.85.65-2.85,1.5T-7.6-7.75A33.471,33.471,0,0,0-.5-7.1a33.471,33.471,0,0,0,7.1-.65Q9.45-8.25,9.45-9.1Z" fill="#25a863"/>
            <path id="패스_2875" data-name="패스 2875" d="M14.1-1.5H-15.05l.75,4.95H13.35Z" fill="#3c3e41"/>
            <path id="패스_2876" data-name="패스 2876" d="M17.75-15.85q1-5.05-2.1-5.25h-31.8q-3.65-.2-2.6,5.25A25.865,25.865,0,0,1-15.3-8.7l-.2-.8q5.3,3.75,4.55,8H10q-.8-4.25,4.5-8l-.2.8a25.865,25.865,0,0,1,3.45-7.15M6.6-10.6q2.85.65,2.85,1.5T6.6-7.75A33.471,33.471,0,0,1-.5-7.1a33.471,33.471,0,0,1-7.1-.65q-2.85-.5-2.85-1.35t2.85-1.5a43.227,43.227,0,0,1,7.1-.5A43.227,43.227,0,0,1,6.6-10.6Z" fill="#3dbf7b"/>
          </g>
        </g>
        <g id="그룹_3795" data-name="그룹 3795">
          <g id="그룹_3794" data-name="그룹 3794">
            <path id="패스_2877" data-name="패스 2877" d="M10.05-21.25a8.044,8.044,0,0,1-3,5.5A11.345,11.345,0,0,1-.5-13.1a11.345,11.345,0,0,1-7.55-2.65A7.649,7.649,0,0,1-11-21.15a6.389,6.389,0,0,0-.55,2.6,2.544,2.544,0,0,0,.05.5A6.741,6.741,0,0,0-8.35-12.8,12.665,12.665,0,0,0-.5-10.35,12.881,12.881,0,0,0,7.4-12.8a6.741,6.741,0,0,0,3.15-5.25,2.544,2.544,0,0,0,.05-.5A6.862,6.862,0,0,0,10.05-21.25Z" fill="#fff"/>
            <path id="패스_2878" data-name="패스 2878" d="M10.1-22.05a8.286,8.286,0,0,0-3.05-6.4A11.622,11.622,0,0,0-.5-31a11.622,11.622,0,0,0-7.55,2.55,8.286,8.286,0,0,0-3.05,6.4,2.544,2.544,0,0,0,.05.5,1.644,1.644,0,0,0,.05.4,7.649,7.649,0,0,0,2.95,5.4A11.345,11.345,0,0,0-.5-13.1a11.345,11.345,0,0,0,7.55-2.65,8.044,8.044,0,0,0,3-5.5v-.3A2.544,2.544,0,0,0,10.1-22.05Z" fill="#bf7958"/>
          </g>
        </g>
      </g>
      <g id="그룹_3799" data-name="그룹 3799" transform="matrix(0.999, -0.049, 0.049, 0.999, 2203.083, -256.958)">
        <g id="그룹_3798" data-name="그룹 3798">
          <g id="그룹_3797" data-name="그룹 3797">
            <path id="패스_2879" data-name="패스 2879" d="M13.407-6.868A29.38,29.38,0,0,0,0-9.673a30.285,30.285,0,0,0-13.548,2.8Q-19.081-3.992-19.081,0t5.533,6.8A29.645,29.645,0,0,0,0,9.673,28.762,28.762,0,0,0,13.407,6.8q5.675-2.8,5.675-6.8T13.407-6.868Z" fill="url(#radial-gradient)"/>
          </g>
        </g>
      </g>
      <g id="그룹_3802" data-name="그룹 3802" transform="translate(2233.583 -276.608) rotate(-107.798)">
        <g id="그룹_3801" data-name="그룹 3801">
          <g id="그룹_3800" data-name="그룹 3800">
            <path id="패스_2880" data-name="패스 2880" d="M-8.35,7.6l-.05-.95A13.422,13.422,0,0,1-3.8-3Q-13.2,3.55-8.4,7.65Z" fill="#a8603f"/>
            <path id="패스_2881" data-name="패스 2881" d="M4.2-3h-8A13.422,13.422,0,0,0-8.4,6.65l.05.95-.05.05q-.05,1.65,0,3.55v.35q0,1.45,2.05,1.85a26.94,26.94,0,0,0,6,.6Q7.05,13.95,4.2-3Z" fill="#bf7958"/>
          </g>
        </g>
      </g>
      <g id="그룹_3831" data-name="그룹 3831" transform="matrix(0.999, -0.049, 0.049, 0.999, 2197.733, -267.258)">
        <g id="그룹_3804" data-name="그룹 3804">
          <g id="그룹_3803" data-name="그룹 3803">
            <path id="패스_2882" data-name="패스 2882" d="M23.75-18.55q-.55-7.2-7.2-12.45A27.292,27.292,0,0,0-.95-36.75,27.292,27.292,0,0,0-18.45-31q-6.6,5.25-7.15,12.45A20.17,20.17,0,0,0-18.45-4.5,25.3,25.3,0,0,0-.95,2a25.3,25.3,0,0,0,17.5-6.5A20.1,20.1,0,0,0,23.75-18.55Z" fill="#3c3e41"/>
            <path id="패스_2883" data-name="패스 2883" d="M23.8-20a20.241,20.241,0,0,0-7.25-15.6A25.53,25.53,0,0,0-.95-42a25.53,25.53,0,0,0-17.5,6.4A20.3,20.3,0,0,0-25.65-20q0,.75.05,1.45.55-7.2,7.15-12.45A27.292,27.292,0,0,1-.95-36.75,27.292,27.292,0,0,1,16.55-31q6.65,5.25,7.2,12.45Q23.8-19.25,23.8-20Z" fill="#454a51"/>
          </g>
        </g>
        <g id="그룹_3806" data-name="그룹 3806">
          <g id="그룹_3805" data-name="그룹 3805">
            <path id="패스_2884" data-name="패스 2884" d="M-24.65-16.95A7.821,7.821,0,0,0-27-11.2a7.7,7.7,0,0,0,2.35,5.65A7.55,7.55,0,0,0-19-3.1a7.655,7.655,0,0,0,5.65-2.45A7.7,7.7,0,0,0-11-11.2a7.821,7.821,0,0,0-2.35-5.75A7.731,7.731,0,0,0-19-19.35a7.624,7.624,0,0,0-5.65,2.4M-22.4-7.8a4.629,4.629,0,0,1-1.4-3.4,5.085,5.085,0,0,1,1.4-3.5A4.629,4.629,0,0,1-19-16.1a4.525,4.525,0,0,1,3.4,1.4,5.085,5.085,0,0,1,1.4,3.5,4.629,4.629,0,0,1-1.4,3.4A4.448,4.448,0,0,1-19-6.35,4.55,4.55,0,0,1-22.4-7.8M12.35-5.55A7.55,7.55,0,0,0,18-3.1a7.655,7.655,0,0,0,5.65-2.45A7.7,7.7,0,0,0,26-11.2a7.821,7.821,0,0,0-2.35-5.75A7.731,7.731,0,0,0,18-19.35a7.624,7.624,0,0,0-5.65,2.4A7.821,7.821,0,0,0,10-11.2a7.7,7.7,0,0,0,2.35,5.65M14.6-14.7A4.629,4.629,0,0,1,18-16.1a4.629,4.629,0,0,1,3.4,1.4,5.085,5.085,0,0,1,1.4,3.5,4.629,4.629,0,0,1-1.4,3.4A4.55,4.55,0,0,1,18-6.35,4.55,4.55,0,0,1,14.6-7.8a4.629,4.629,0,0,1-1.4-3.4A5.085,5.085,0,0,1,14.6-14.7Z" fill="#bf7958"/>
            <path id="패스_2885" data-name="패스 2885" d="M-23.8-11.2a4.629,4.629,0,0,0,1.4,3.4A4.55,4.55,0,0,0-19-6.35,4.448,4.448,0,0,0-15.6-7.8a4.629,4.629,0,0,0,1.4-3.4,5.085,5.085,0,0,0-1.4-3.5A4.525,4.525,0,0,0-19-16.1a4.629,4.629,0,0,0-3.4,1.4,5.085,5.085,0,0,0-1.4,3.5M18-16.1a4.629,4.629,0,0,0-3.4,1.4,5.085,5.085,0,0,0-1.4,3.5,4.629,4.629,0,0,0,1.4,3.4A4.55,4.55,0,0,0,18-6.35,4.55,4.55,0,0,0,21.4-7.8a4.629,4.629,0,0,0,1.4-3.4,5.085,5.085,0,0,0-1.4-3.5A4.629,4.629,0,0,0,18-16.1Z" fill="#a8603f"/>
          </g>
        </g>
        <g id="그룹_3808" data-name="그룹 3808">
          <g id="그룹_3807" data-name="그룹 3807">
            <path id="패스_2886" data-name="패스 2886" d="M18.1-3.65,20.4-26.2H-21.45l2.3,22.55q2.05,7.4,10.4,10.3A23.239,23.239,0,0,0-.55,8a23,23,0,0,0,8.2-1.35Q16.05,3.75,18.1-3.65Z" fill="#bf7958"/>
          </g>
        </g>
        <g id="그룹_3810" data-name="그룹 3810">
          <g id="그룹_3809" data-name="그룹 3809">
            <path id="패스_2887" data-name="패스 2887" d="M-13.1-9.2v-.35a4.276,4.276,0,0,1,1.15-3,4.137,4.137,0,0,1,2.3-1.25H-15.4a6.079,6.079,0,0,1,2.3,4.6m6.65,2.15a4.255,4.255,0,0,0,.7-2.5,4.4,4.4,0,0,0-.7-2.5A2.057,2.057,0,0,0-8.2-13.1a1.908,1.908,0,0,0-1.65,1.05,4.4,4.4,0,0,0-.7,2.5,4.255,4.255,0,0,0,.7,2.5A1.908,1.908,0,0,0-8.2-6,2.057,2.057,0,0,0-6.45-7.05m18.5-2.5v.35a6.144,6.144,0,0,1,2.25-4.6H8.6a4.137,4.137,0,0,1,2.3,1.25,4.276,4.276,0,0,1,1.15,3m-7.35,0a4.255,4.255,0,0,0,.7,2.5A1.943,1.943,0,0,0,7.1-6,2.022,2.022,0,0,0,8.8-7.05a4.255,4.255,0,0,0,.7-2.5,4.4,4.4,0,0,0-.7-2.5A2.022,2.022,0,0,0,7.1-13.1a1.943,1.943,0,0,0-1.7,1.05A4.4,4.4,0,0,0,4.7-9.55Z" fill="#3c3e41"/>
            <path id="패스_2888" data-name="패스 2888" d="M-9.25-13.85a1.644,1.644,0,0,0-.4.05,4.137,4.137,0,0,0-2.3,1.25,4.276,4.276,0,0,0-1.15,3v.35a4.254,4.254,0,0,0,1.15,2.65A3.858,3.858,0,0,0-9-5.25a3.653,3.653,0,0,0,2.85-1.3,4.178,4.178,0,0,0,1.2-3,4.178,4.178,0,0,0-1.2-3A3.653,3.653,0,0,0-9-13.85h-.25m3.5,4.3a4.255,4.255,0,0,1-.7,2.5A2.057,2.057,0,0,1-8.2-6,1.908,1.908,0,0,1-9.85-7.05a4.255,4.255,0,0,1-.7-2.5,4.4,4.4,0,0,1,.7-2.5A1.908,1.908,0,0,1-8.2-13.1a2.057,2.057,0,0,1,1.75,1.05,4.4,4.4,0,0,1,.7,2.5M8.6-13.8a1.644,1.644,0,0,0-.4-.05H7.9a3.507,3.507,0,0,0-2.8,1.3,4.178,4.178,0,0,0-1.2,3,4.178,4.178,0,0,0,1.2,3,3.507,3.507,0,0,0,2.8,1.3,3.913,3.913,0,0,0,3-1.3A4.254,4.254,0,0,0,12.05-9.2v-.35a4.276,4.276,0,0,0-1.15-3A4.137,4.137,0,0,0,8.6-13.8M5.4-7.05a4.255,4.255,0,0,1-.7-2.5,4.4,4.4,0,0,1,.7-2.5A1.943,1.943,0,0,1,7.1-13.1a2.022,2.022,0,0,1,1.7,1.05,4.4,4.4,0,0,1,.7,2.5,4.255,4.255,0,0,1-.7,2.5A2.022,2.022,0,0,1,7.1-6,1.943,1.943,0,0,1,5.4-7.05Z" fill="#fff"/>
          </g>
        </g>
        <g id="그룹_3812" data-name="그룹 3812">
          <g id="그룹_3811" data-name="그룹 3811">
            <path id="패스_2889" data-name="패스 2889" d="M8.5-1.2Q5.65-3.6,2.85-2.8.05-2.1-1.1,1.35Z" fill="#955435"/>
          </g>
        </g>
        <g id="그룹_3814" data-name="그룹 3814">
          <g id="그룹_3813" data-name="그룹 3813">
            <path id="패스_2890" data-name="패스 2890" d="M1.85-4.85A1.959,1.959,0,0,0,2.9-6.45,2.078,2.078,0,0,0,1.85-8.1,4.4,4.4,0,0,0-.6-8.75a4.215,4.215,0,0,0-2.35.65,2.094,2.094,0,0,0-1,1.65,1.97,1.97,0,0,0,1,1.6A3.807,3.807,0,0,0-.6-4.1,3.967,3.967,0,0,0,1.85-4.85Z" fill="#955435"/>
          </g>
        </g>
        <g id="그룹_3816" data-name="그룹 3816">
          <g id="그룹_3815" data-name="그룹 3815">
            <path id="패스_2891" data-name="패스 2891" d="M20.05-17.65l1-8.4H20.5v-.85H-22.2l.65,7.65q10.75-.2,15.9-4.1,5.2,6.45,11.05,6.6l1.45-3.1A33.322,33.322,0,0,0,20.05-17.65Z" fill="#3c3e41"/>
          </g>
        </g>
        <g id="그룹_3818" data-name="그룹 3818">
          <g id="그룹_3817" data-name="그룹 3817">
            <path id="패스_2892" data-name="패스 2892" d="M17.1-26.95a13.207,13.207,0,0,0-2-2.15Q9.55-33.8-.5-33.8t-15.55,4.65a2.253,2.253,0,0,0-.65.6,6.366,6.366,0,0,0-1.4,1.6A1.908,1.908,0,0,0-18.25-25Q-11.8-28.7-.5-28.7q11.2,0,17.7,3.65A1.9,1.9,0,0,0,17.1-26.95Z" fill="#71a2be"/>
          </g>
        </g>
        <g id="그룹_3820" data-name="그룹 3820">
          <g id="그룹_3819" data-name="그룹 3819">
            <path id="패스_2893" data-name="패스 2893" d="M-16.6-12.55a2.57,2.57,0,0,0,.5-1.85l-.65-5.65H-21.7l.75,6.25A2.466,2.466,0,0,0-20-12.1a2.315,2.315,0,0,0,1.8.45h.05A2.036,2.036,0,0,0-16.6-12.55Z" fill="#3c3e41"/>
          </g>
        </g>
        <g id="그룹_3822" data-name="그룹 3822">
          <g id="그룹_3821" data-name="그룹 3821">
            <path id="패스_2894" data-name="패스 2894" d="M14.85-14.4a2.57,2.57,0,0,0,.5,1.85,2.191,2.191,0,0,0,1.6.9H17a2.315,2.315,0,0,0,1.8-.45,2.466,2.466,0,0,0,.95-1.7l.75-6.25h-5Z" fill="#3c3e41"/>
          </g>
        </g>
        <g id="그룹_3824" data-name="그룹 3824">
          <g id="그룹_3823" data-name="그룹 3823">
            <path id="패스_2895" data-name="패스 2895" d="M13.4-14.9l-.6-2.35L3.5-15.9l.55,1.95Z" fill="#3c3e41"/>
          </g>
        </g>
        <g id="그룹_3826" data-name="그룹 3826">
          <g id="그룹_3825" data-name="그룹 3825">
            <path id="패스_2896" data-name="패스 2896" d="M-13.3-17.25l-.9,2.3,9.3,1.9L-4.15-15Z" fill="#3c3e41"/>
          </g>
        </g>
        <g id="그룹_3828" data-name="그룹 3828">
          <g id="그룹_3827" data-name="그룹 3827">
            <path id="패스_2897" data-name="패스 2897" d="M19.85-7.8a1.756,1.756,0,0,0-.2,1.4l1,3.85a1.858,1.858,0,0,0,.85,1.1,1.847,1.847,0,0,0,1.4.15h.05a1.858,1.858,0,0,0,1.1-.85,1.857,1.857,0,0,0,.2-1.45l-1-3.8a1.821,1.821,0,0,0-.9-1.1A1.77,1.77,0,0,0,21-8.65h-.05A1.683,1.683,0,0,0,19.85-7.8Z" fill="#eea160"/>
          </g>
        </g>
        <g id="그룹_3830" data-name="그룹 3830">
          <g id="그룹_3829" data-name="그룹 3829">
            <path id="패스_2898" data-name="패스 2898" d="M-20.8-7.8a1.683,1.683,0,0,0-1.1-.85h-.05a1.88,1.88,0,0,0-1.4.15,1.821,1.821,0,0,0-.9,1.1l-.95,3.8A1.857,1.857,0,0,0-25-2.15a1.861,1.861,0,0,0,1.05.85h.05a1.847,1.847,0,0,0,1.4-.15,1.821,1.821,0,0,0,.9-1.1l1-3.85A1.756,1.756,0,0,0-20.8-7.8Z" fill="#eea160"/>
          </g>
        </g>
      </g>
      <g id="그룹_3834" data-name="그룹 3834" transform="matrix(-0.841, -0.542, 0.542, -0.841, 2173.033, -243.508)">
        <g id="그룹_3833" data-name="그룹 3833">
          <g id="그룹_3832" data-name="그룹 3832">
            <path id="패스_2899" data-name="패스 2899" d="M-8.35-7.6l-.05.95A13.421,13.421,0,0,0-3.8,3Q-13.2-3.55-8.4-7.65Z" fill="#a8603f"/>
            <path id="패스_2900" data-name="패스 2900" d="M4.2,3h-8A13.421,13.421,0,0,1-8.4-6.65l.05-.95-.05-.05q-.05-1.65,0-3.55v-.35q0-1.45,2.05-1.85a26.939,26.939,0,0,1,6-.6Q7.05-13.95,4.2,3Z" fill="#bf7958"/>
          </g>
        </g>
      </g>
    </g>
    <g id="그룹_14809" data-name="그룹 14809" transform="translate(-3245.746 -667.92)">
      <g id="그룹_9747" data-name="그룹 9747" transform="translate(3362.9 1401.403) rotate(-112.304)">
        <g id="그룹_9746" data-name="그룹 9746">
          <g id="그룹_9745" data-name="그룹 9745">
            <path id="패스_7206" data-name="패스 7206" d="M-1.15-10.649q-.1.1-.15-.05a1.111,1.111,0,0,1-.15-.35v-3.5a.855.855,0,0,1,.15-.4A.557.557,0,0,1-1.05-15a6.726,6.726,0,0,1,4.8,2.05H3.8A7.308,7.308,0,0,1,6-7.85,7.008,7.008,0,0,1,4.05-2.7l-.15.15a4.328,4.328,0,0,0-.2-1.1A4.839,4.839,0,0,0,1.5-6.6a2.734,2.734,0,0,0,.25-1.15,3.553,3.553,0,0,0-.8-2A.384.384,0,0,1,.8-9.8a2.715,2.715,0,0,0-1.95-.85M-5.7.45q-.415-.091-.85-.2A6.841,6.841,0,0,1-10.949-3a7.405,7.405,0,0,1-.85-5.5v-.1a7.071,7.071,0,0,1,3.1-4.25.538.538,0,0,1,.3-.1.322.322,0,0,1,.15.2L-6.3-9.7a.288.288,0,0,1,.1.2,1.163,1.163,0,0,1-.2.3A2.877,2.877,0,0,0-7.6-7.5v.1a2.757,2.757,0,0,0,.35,2.1,3.048,3.048,0,0,0,1.2,1.15A5.827,5.827,0,0,0-6.2-.8,6.93,6.93,0,0,0-5.7.45Z" fill="#bfd4e5"/>
            <path id="패스_7207" data-name="패스 7207" d="M3.25.3A5.078,5.078,0,0,1,.2,2.8a5.008,5.008,0,0,1-3.95-.45A5.5,5.5,0,0,1-5.7.45,6.93,6.93,0,0,1-6.2-.8a5.827,5.827,0,0,1,.15-3.35q.142-.326.3-.65a5.076,5.076,0,0,1,3.1-2.45,5.126,5.126,0,0,1,3.9.45,1.06,1.06,0,0,1,.25.2A4.839,4.839,0,0,1,3.7-3.65a4.328,4.328,0,0,1,.2,1.1A4.59,4.59,0,0,1,3.25.3Z" fill="#5393c5"/>
          </g>
        </g>
      </g>
      <g id="그룹_9750" data-name="그룹 9750" transform="translate(3385.601 1401.753) rotate(-111.538)">
        <g id="그룹_9749" data-name="그룹 9749">
          <g id="그룹_9748" data-name="그룹 9748">
            <path id="패스_7208" data-name="패스 7208" d="M6.4-14.7a6.041,6.041,0,0,0-2.45.5,27.041,27.041,0,0,0,.85-6,3.717,3.717,0,0,1,1.35-2.75A3.956,3.956,0,0,1,9.05-24a4.133,4.133,0,0,1,2.9,1.25A3.993,3.993,0,0,1,13-19.9a35.806,35.806,0,0,1-1.3,8.5,5.329,5.329,0,0,0-1.2-1.7,5.768,5.768,0,0,0-4.1-1.6M6.4-3.45a5.779,5.779,0,0,0,1.9-.3A27.822,27.822,0,0,1,.6,4.2a4.117,4.117,0,0,1-3.1.75A3.827,3.827,0,0,1-5.15,3.4,3.638,3.638,0,0,1-5.95.45,4.075,4.075,0,0,1-4.3-2.15,21.658,21.658,0,0,0,.85-7.3a5.627,5.627,0,0,0,1.4,2.2A5.845,5.845,0,0,0,6.4-3.45M5.05-7.1a2.325,2.325,0,0,1-.35-.45,2.57,2.57,0,0,1-.45-1.5A2.653,2.653,0,0,1,5.05-11a2.884,2.884,0,0,1,2.05-.8,3.167,3.167,0,0,1,1.6.4l.4.4a3.442,3.442,0,0,1,.6.65,2.866,2.866,0,0,1,.3,1.3A2.513,2.513,0,0,1,9.1-7.1a2.713,2.713,0,0,1-2,.8,2.675,2.675,0,0,1-1.3-.3A3.675,3.675,0,0,1,5.05-7.1Z" fill="#477ca6"/>
            <path id="패스_7209" data-name="패스 7209" d="M11.7-11.4a4.877,4.877,0,0,1,.55,2.3,5.4,5.4,0,0,1-1.75,4A5.725,5.725,0,0,1,8.3-3.75a5.779,5.779,0,0,1-1.9.3A5.845,5.845,0,0,1,2.25-5.1,5.627,5.627,0,0,1,.85-7.3a5.365,5.365,0,0,1-.3-1.8,5.473,5.473,0,0,1,1.7-4,5.781,5.781,0,0,1,1.7-1.1,6.041,6.041,0,0,1,2.45-.5,5.768,5.768,0,0,1,4.1,1.6,5.329,5.329,0,0,1,1.2,1.7m-7,3.85a2.325,2.325,0,0,0,.35.45,3.675,3.675,0,0,0,.75.5,2.675,2.675,0,0,0,1.3.3,2.713,2.713,0,0,0,2-.8A2.513,2.513,0,0,0,10-9.05a2.866,2.866,0,0,0-.3-1.3A3.442,3.442,0,0,0,9.1-11l-.4-.4a3.167,3.167,0,0,0-1.6-.4,2.884,2.884,0,0,0-2.05.8,2.653,2.653,0,0,0-.8,1.95A2.57,2.57,0,0,0,4.7-7.55Z" fill="#334e63"/>
          </g>
        </g>
      </g>
      <g id="그룹_9753" data-name="그룹 9753" transform="matrix(-0.259, 0.966, -0.966, -0.259, 3429.601, 1419.753)">
        <g id="그룹_9752" data-name="그룹 9752">
          <g id="그룹_9751" data-name="그룹 9751">
            <path id="패스_7210" data-name="패스 7210" d="M-1.15-10.649q-.1.1-.15-.05a1.111,1.111,0,0,1-.15-.35v-3.5a.855.855,0,0,1,.15-.4A.557.557,0,0,1-1.05-15a6.726,6.726,0,0,1,4.8,2.05H3.8A7.307,7.307,0,0,1,6-7.849,7.008,7.008,0,0,1,4.05-2.7l-.15.15a4.328,4.328,0,0,0-.2-1.1A4.839,4.839,0,0,0,1.5-6.6a2.734,2.734,0,0,0,.25-1.15,3.553,3.553,0,0,0-.8-2A.384.384,0,0,1,.8-9.8a2.715,2.715,0,0,0-1.95-.85M-5.7.45q-.415-.091-.85-.2A6.84,6.84,0,0,1-10.949-3a7.405,7.405,0,0,1-.85-5.5v-.1a7.071,7.071,0,0,1,3.1-4.25.538.538,0,0,1,.3-.1.322.322,0,0,1,.15.2L-6.3-9.7a.288.288,0,0,1,.1.2,1.163,1.163,0,0,1-.2.3A2.877,2.877,0,0,0-7.6-7.5v.1a2.757,2.757,0,0,0,.35,2.1,3.047,3.047,0,0,0,1.2,1.15A5.827,5.827,0,0,0-6.2-.8,6.929,6.929,0,0,0-5.7.45Z" fill="#bfd4e5"/>
            <path id="패스_7211" data-name="패스 7211" d="M3.25.3A5.078,5.078,0,0,1,.2,2.8a5.008,5.008,0,0,1-3.95-.45A5.5,5.5,0,0,1-5.7.45,6.929,6.929,0,0,1-6.2-.8a5.827,5.827,0,0,1,.15-3.35q.142-.326.3-.65a5.076,5.076,0,0,1,3.1-2.45,5.126,5.126,0,0,1,3.9.45,1.06,1.06,0,0,1,.25.2A4.839,4.839,0,0,1,3.7-3.65a4.328,4.328,0,0,1,.2,1.1A4.59,4.59,0,0,1,3.25.3Z" fill="#5393c5"/>
          </g>
        </g>
      </g>
      <g id="그룹_9756" data-name="그룹 9756" transform="translate(3410.351 1407.853) rotate(98.463)">
        <g id="그룹_9755" data-name="그룹 9755">
          <g id="그룹_9754" data-name="그룹 9754">
            <path id="패스_7212" data-name="패스 7212" d="M6.4-14.7a6.04,6.04,0,0,0-2.45.5,27.04,27.04,0,0,0,.85-6,3.717,3.717,0,0,1,1.35-2.75A3.956,3.956,0,0,1,9.049-24a4.133,4.133,0,0,1,2.9,1.25A3.993,3.993,0,0,1,13-19.9a35.805,35.805,0,0,1-1.3,8.5,5.328,5.328,0,0,0-1.2-1.7,5.768,5.768,0,0,0-4.1-1.6M6.4-3.45a5.779,5.779,0,0,0,1.9-.3A27.821,27.821,0,0,1,.6,4.2a4.117,4.117,0,0,1-3.1.75A3.826,3.826,0,0,1-5.15,3.4,3.638,3.638,0,0,1-5.95.45,4.075,4.075,0,0,1-4.3-2.15,21.657,21.657,0,0,0,.85-7.3a5.627,5.627,0,0,0,1.4,2.2A5.845,5.845,0,0,0,6.4-3.45M5.05-7.1a2.324,2.324,0,0,1-.35-.45,2.57,2.57,0,0,1-.45-1.5A2.653,2.653,0,0,1,5.05-11a2.884,2.884,0,0,1,2.05-.8,3.167,3.167,0,0,1,1.6.4l.4.4a3.442,3.442,0,0,1,.6.65,2.866,2.866,0,0,1,.3,1.3A2.513,2.513,0,0,1,9.1-7.1a2.713,2.713,0,0,1-2,.8,2.675,2.675,0,0,1-1.3-.3A3.675,3.675,0,0,1,5.05-7.1Z" fill="#477ca6"/>
            <path id="패스_7213" data-name="패스 7213" d="M11.7-11.4a4.877,4.877,0,0,1,.55,2.3,5.4,5.4,0,0,1-1.75,4A5.724,5.724,0,0,1,8.3-3.75a5.779,5.779,0,0,1-1.9.3A5.845,5.845,0,0,1,2.25-5.1,5.627,5.627,0,0,1,.85-7.3a5.365,5.365,0,0,1-.3-1.8,5.473,5.473,0,0,1,1.7-4,5.781,5.781,0,0,1,1.7-1.1,6.04,6.04,0,0,1,2.45-.5,5.768,5.768,0,0,1,4.1,1.6,5.328,5.328,0,0,1,1.2,1.7m-7,3.85a2.324,2.324,0,0,0,.35.45,3.675,3.675,0,0,0,.75.5,2.675,2.675,0,0,0,1.3.3,2.713,2.713,0,0,0,2-.8,2.513,2.513,0,0,0,.9-1.95,2.866,2.866,0,0,0-.3-1.3A3.442,3.442,0,0,0,9.1-11l-.4-.4a3.167,3.167,0,0,0-1.6-.4,2.884,2.884,0,0,0-2.05.8,2.653,2.653,0,0,0-.8,1.95A2.57,2.57,0,0,0,4.7-7.549Z" fill="#334e63"/>
          </g>
        </g>
      </g>
      <g id="그룹_9759" data-name="그룹 9759" transform="matrix(0.686, -0.728, 0.729, 0.685, 3406.3, 1425.253)">
        <g id="그룹_9758" data-name="그룹 9758">
          <g id="그룹_9757" data-name="그룹 9757">
            <path id="패스_7214" data-name="패스 7214" d="M11,19.627,5.25,13.739H-.55V9.47a2.853,2.853,0,0,0-.9-2.11A2.962,2.962,0,0,0-3.6,6.477h-.05A2.962,2.962,0,0,0-5.8,7.36a3.332,3.332,0,0,0-.7.981A3.222,3.222,0,0,0-6.7,9.47l-.3,13.1H10.9l.1-2.944M-3.6,8.194a1.452,1.452,0,0,1,1.05.442,1.4,1.4,0,0,1,.45,1.03,1.4,1.4,0,0,1-.45,1.03,1.452,1.452,0,0,1-1.05.442A1.452,1.452,0,0,1-4.65,10.7a1.4,1.4,0,0,1-.45-1.03,1.4,1.4,0,0,1,.45-1.03A1.452,1.452,0,0,1-3.6,8.194Z" fill="#334e63"/>
            <path id="패스_7215" data-name="패스 7215" d="M-2.55,8.636A1.452,1.452,0,0,0-3.6,8.194a1.452,1.452,0,0,0-1.05.442,1.4,1.4,0,0,0-.45,1.03,1.4,1.4,0,0,0,.45,1.03,1.452,1.452,0,0,0,1.05.442A1.452,1.452,0,0,0-2.55,10.7a1.4,1.4,0,0,0,.45-1.03,1.4,1.4,0,0,0-.45-1.03M5.9-.2A5.171,5.171,0,0,0,4-4.22,6.545,6.545,0,0,0-.55-5.888,6.662,6.662,0,0,0-5.1-4.22,5.171,5.171,0,0,0-7-.2l.5,8.538a3.332,3.332,0,0,1,.7-.981,2.962,2.962,0,0,1,2.15-.883h.05a2.962,2.962,0,0,1,2.15.883,2.853,2.853,0,0,1,.9,2.11v4.269H5.3Z" fill="#477ca6"/>
          </g>
        </g>
      </g>
      <g id="그룹_9762" data-name="그룹 9762" transform="matrix(0.413, 0.911, -0.91, 0.414, 3384.7, 1423.003)">
        <g id="그룹_9761" data-name="그룹 9761">
          <g id="그룹_9760" data-name="그룹 9760">
            <path id="패스_7216" data-name="패스 7216" d="M11,19.628,5.25,13.739H-.55V9.47a2.853,2.853,0,0,0-.9-2.11A2.962,2.962,0,0,0-3.6,6.477h-.05A2.962,2.962,0,0,0-5.8,7.36a3.332,3.332,0,0,0-.7.981A3.222,3.222,0,0,0-6.7,9.47l-.3,13.1H10.9l.1-2.944M-3.6,8.195a1.452,1.452,0,0,1,1.05.442,1.4,1.4,0,0,1,.45,1.03,1.4,1.4,0,0,1-.45,1.03,1.452,1.452,0,0,1-1.05.442A1.452,1.452,0,0,1-4.65,10.7a1.4,1.4,0,0,1-.45-1.03,1.4,1.4,0,0,1,.45-1.03A1.452,1.452,0,0,1-3.6,8.195Z" fill="#334e63"/>
            <path id="패스_7217" data-name="패스 7217" d="M-2.55,8.636A1.452,1.452,0,0,0-3.6,8.195a1.452,1.452,0,0,0-1.05.442,1.4,1.4,0,0,0-.45,1.03,1.4,1.4,0,0,0,.45,1.03,1.452,1.452,0,0,0,1.05.442A1.452,1.452,0,0,0-2.55,10.7a1.4,1.4,0,0,0,.45-1.03,1.4,1.4,0,0,0-.45-1.03M5.9-.2A5.171,5.171,0,0,0,4-4.22,6.546,6.546,0,0,0-.55-5.888,6.663,6.663,0,0,0-5.1-4.22,5.171,5.171,0,0,0-7-.2l.5,8.538a3.332,3.332,0,0,1,.7-.981,2.962,2.962,0,0,1,2.15-.883h.05a2.962,2.962,0,0,1,2.15.883,2.853,2.853,0,0,1,.9,2.11v4.269H5.3Z" fill="#477ca6"/>
          </g>
        </g>
      </g>
      <g id="그룹_9767" data-name="그룹 9767" transform="matrix(0.988, 0.156, -0.156, 0.988, 3396, 1421.053)">
        <g id="그룹_9764" data-name="그룹 9764">
          <g id="그룹_9763" data-name="그룹 9763">
            <path id="패스_7218" data-name="패스 7218" d="M-12.08-14.9a6.409,6.409,0,0,0,1.819-4.6,6.409,6.409,0,0,0-1.819-4.6A5.653,5.653,0,0,0-16.37-26a5.51,5.51,0,0,0-4.244,1.9,6.5,6.5,0,0,0-1.772,4.6,6.5,6.5,0,0,0,1.772,4.6A5.51,5.51,0,0,0-16.37-13a5.653,5.653,0,0,0,4.291-1.9m31.761,0a6.5,6.5,0,0,0,1.772-4.6,6.5,6.5,0,0,0-1.772-4.6A5.653,5.653,0,0,0,15.391-26a5.51,5.51,0,0,0-4.244,1.9,6.409,6.409,0,0,0-1.819,4.6,6.409,6.409,0,0,0,1.819,4.6A5.51,5.51,0,0,0,15.391-13,5.653,5.653,0,0,0,19.682-14.9Z" fill="#334e63"/>
          </g>
        </g>
        <g id="그룹_9766" data-name="그룹 9766">
          <g id="그룹_9765" data-name="그룹 9765">
            <path id="패스_7219" data-name="패스 7219" d="M12.033,8a9.827,9.827,0,0,0,1.4-5.25h-27.89A9.827,9.827,0,0,0-13.059,8Z" fill="#5393c5"/>
            <path id="패스_7220" data-name="패스 7220" d="M7.229-2.25a9.884,9.884,0,0,0,1.259-5A9.784,9.784,0,0,0,5.877-14.1a8.43,8.43,0,0,0-6.39-2.85A8.43,8.43,0,0,0-6.9-14.1,9.688,9.688,0,0,0-9.561-7.25a9.607,9.607,0,0,0,1.306,5h-6.2v5h27.89v-5h-6.2M4.2-8.8,2.658-3.55a.63.63,0,0,1-.233.35.653.653,0,0,1-.42.15h-4.9a.6.6,0,0,1-.373-.15.586.586,0,0,1-.28-.35L-5.084-8.8a1.352,1.352,0,0,1,0-.5,1.564,1.564,0,0,1,.28-.4l4.011-3.15A.486.486,0,0,1-.42-13a.8.8,0,0,1,.42.15L3.964-9.7a2.664,2.664,0,0,1,.233.4A1.352,1.352,0,0,1,4.2-8.8Z" fill="#334e63"/>
            <path id="패스_7221" data-name="패스 7221" d="M2.658-3.55,4.2-8.8a1.352,1.352,0,0,0,0-.5,2.664,2.664,0,0,0-.233-.4L0-12.85A.8.8,0,0,0-.42-13a.486.486,0,0,0-.373.15L-4.8-9.7a1.564,1.564,0,0,0-.28.4,1.352,1.352,0,0,0,0,.5l1.539,5.25a.586.586,0,0,0,.28.35.6.6,0,0,0,.373.15h4.9a.653.653,0,0,0,.42-.15A.63.63,0,0,0,2.658-3.55Z" fill="#f69"/>
            <path id="패스_7222" data-name="패스 7222" d="M16.464-16q1.166-5-2.1-5.25H9.374v-.25a2.721,2.721,0,0,0,.047-.5,8.586,8.586,0,0,0-2.845-6.45A10.384,10.384,0,0,0-.466-31a10.384,10.384,0,0,0-7.043,2.55A8.586,8.586,0,0,0-10.354-22a2.721,2.721,0,0,0,.047.5.591.591,0,0,0,.047.25h-4.8q-3.4-.2-2.425,5.25l3.032,13.75h6.2a9.607,9.607,0,0,1-1.306-5A9.688,9.688,0,0,1-6.9-14.1a8.43,8.43,0,0,1,6.39-2.85,8.43,8.43,0,0,1,6.39,2.85A9.784,9.784,0,0,1,8.488-7.25a9.884,9.884,0,0,1-1.259,5h6.2Z" fill="#477ca6"/>
          </g>
        </g>
      </g>
      <g id="그룹_9770" data-name="그룹 9770" transform="translate(3399.7 1399.703)">
        <g id="그룹_9769" data-name="그룹 9769">
          <g id="그룹_9768" data-name="그룹 9768">
            <path id="패스_7223" data-name="패스 7223" d="M11.438-9.55A17.372,17.372,0,0,0,0-13.45a17.854,17.854,0,0,0-11.559,3.9A12.14,12.14,0,0,0-16.28,0a11.859,11.859,0,0,0,4.721,9.45A17.57,17.57,0,0,0,0,13.45a17.1,17.1,0,0,0,11.438-4A11.758,11.758,0,0,0,16.28,0Q16.28-5.55,11.438-9.55Z" fill="url(#radial-gradient)"/>
          </g>
        </g>
      </g>
      <g id="그룹_9791" data-name="그룹 9791" transform="translate(3403 1394.503) rotate(8.495)">
        <g id="그룹_9772" data-name="그룹 9772">
          <g id="그룹_9771" data-name="그룹 9771">
            <path id="패스_7224" data-name="패스 7224" d="M11.85-7.1A16.739,16.739,0,0,0,17-19.45a16.9,16.9,0,0,0-5.15-12.4A16.9,16.9,0,0,0-.55-37a16.9,16.9,0,0,0-12.4,5.15,16.9,16.9,0,0,0-5.15,12.4A16.739,16.739,0,0,0-12.95-7.1,16.822,16.822,0,0,0-.55-1.9a16.822,16.822,0,0,0,12.4-5.2M9.4-19.45a9.538,9.538,0,0,1-2.9,7A9.621,9.621,0,0,1-.55-9.5a9.458,9.458,0,0,1-7-2.95,9.458,9.458,0,0,1-2.95-7,9.458,9.458,0,0,1,2.95-7,9.458,9.458,0,0,1,7-2.95A9.621,9.621,0,0,1,6.5-26.45,9.538,9.538,0,0,1,9.4-19.45Z" fill="#bfd4e5"/>
            <path id="패스_7225" data-name="패스 7225" d="M6.5-12.45a9.538,9.538,0,0,0,2.9-7,9.538,9.538,0,0,0-2.9-7A9.621,9.621,0,0,0-.55-29.4a9.458,9.458,0,0,0-7,2.95,9.458,9.458,0,0,0-2.95,7,9.458,9.458,0,0,0,2.95,7,9.458,9.458,0,0,0,7,2.95A9.621,9.621,0,0,0,6.5-12.45Z" fill="#fff"/>
          </g>
        </g>
        <g id="그룹_9774" data-name="그룹 9774">
          <g id="그룹_9773" data-name="그룹 9773">
            <path id="패스_7226" data-name="패스 7226" d="M-16-30.45a2.626,2.626,0,0,0-1.25,1.65l-2.2,8.2a2.862,2.862,0,0,0,.25,2.15,3.024,3.024,0,0,0,1.75,1.25h.05a2.862,2.862,0,0,0,2.1-.2A2.965,2.965,0,0,0-14-19.15l2.15-8.2a2.6,2.6,0,0,0-.3-2.1,2.582,2.582,0,0,0-1.6-1.3h-.05A2.874,2.874,0,0,0-16-30.45Z" fill="#477ca6"/>
          </g>
        </g>
        <g id="그룹_9776" data-name="그룹 9776">
          <g id="그룹_9775" data-name="그룹 9775">
            <path id="패스_7227" data-name="패스 7227" d="M16.3-28.8a2.626,2.626,0,0,0-1.25-1.65,2.874,2.874,0,0,0-2.2-.3H12.8a2.59,2.59,0,0,0-1.65,1.3,2.6,2.6,0,0,0-.3,2.1l2.2,8.2a2.965,2.965,0,0,0,1.3,1.75,2.862,2.862,0,0,0,2.1.2h.05a3.021,3.021,0,0,0,1.7-1.25,2.862,2.862,0,0,0,.25-2.15Z" fill="#477ca6"/>
          </g>
        </g>
        <g id="그룹_9778" data-name="그룹 9778">
          <g id="그룹_9777" data-name="그룹 9777">
            <path id="패스_7228" data-name="패스 7228" d="M-24.65-11A7.7,7.7,0,0,0-27-5.35,7.54,7.54,0,0,0-24.65.25,7.731,7.731,0,0,0-19,2.65,7.787,7.787,0,0,0-13.3.25,7.621,7.621,0,0,0-11-5.35,7.788,7.788,0,0,0-13.3-11,7.787,7.787,0,0,0-19-13.4,7.731,7.731,0,0,0-24.65-11m2.3,9.05a4.629,4.629,0,0,1-1.4-3.4,4.738,4.738,0,0,1,1.4-3.4A4.571,4.571,0,0,1-19-10.15a4.688,4.688,0,0,1,3.45,1.4,4.738,4.738,0,0,1,1.4,3.4,4.629,4.629,0,0,1-1.4,3.4A4.606,4.606,0,0,1-19-.5a4.494,4.494,0,0,1-3.35-1.45M18-13.4A7.731,7.731,0,0,0,12.35-11,7.7,7.7,0,0,0,10-5.35,7.54,7.54,0,0,0,12.35.25,7.731,7.731,0,0,0,18,2.65,7.787,7.787,0,0,0,23.7.25,7.621,7.621,0,0,0,26-5.35,7.788,7.788,0,0,0,23.7-11,7.787,7.787,0,0,0,18-13.4M18-.5a4.494,4.494,0,0,1-3.35-1.45,4.55,4.55,0,0,1-1.45-3.4,4.655,4.655,0,0,1,1.45-3.4A4.571,4.571,0,0,1,18-10.15a4.8,4.8,0,0,1,3.45,1.4,4.738,4.738,0,0,1,1.4,3.4,4.629,4.629,0,0,1-1.4,3.4A4.712,4.712,0,0,1,18-.5Z" fill="#5393c5"/>
            <path id="패스_7229" data-name="패스 7229" d="M-23.75-5.35a4.629,4.629,0,0,0,1.4,3.4A4.494,4.494,0,0,0-19-.5a4.606,4.606,0,0,0,3.45-1.45,4.629,4.629,0,0,0,1.4-3.4,4.738,4.738,0,0,0-1.4-3.4A4.688,4.688,0,0,0-19-10.15a4.571,4.571,0,0,0-3.35,1.4,4.738,4.738,0,0,0-1.4,3.4m38.4,3.4A4.494,4.494,0,0,0,18-.5a4.712,4.712,0,0,0,3.45-1.45,4.629,4.629,0,0,0,1.4-3.4,4.738,4.738,0,0,0-1.4-3.4A4.8,4.8,0,0,0,18-10.15a4.571,4.571,0,0,0-3.35,1.4,4.655,4.655,0,0,0-1.45,3.4A4.55,4.55,0,0,0,14.65-1.95Z" fill="#477ca6"/>
          </g>
        </g>
        <g id="그룹_9780" data-name="그룹 9780">
          <g id="그룹_9779" data-name="그룹 9779">
            <path id="패스_7230" data-name="패스 7230" d="M-18.2,8h8q-.05-9.8-9.3-12.7L-18.2,8M11.7,8q5.35-.7,6.1-5.7l.9-8.75Q9.65-1.8,9.3,8Z" fill="#334e63"/>
            <path id="패스_7231" data-name="패스 7231" d="M18.7-6.45l1.75-16.9H-21.4L-19.5-4.7Q-10.25-1.8-10.2,8H9.3Q9.65-1.8,18.7-6.45Z" fill="#5393c5"/>
          </g>
        </g>
        <g id="그룹_9782" data-name="그룹 9782">
          <g id="그룹_9781" data-name="그룹 9781">
            <path id="패스_7232" data-name="패스 7232" d="M5.45-4.6A7.7,7.7,0,0,0,7.8-10.25,7.6,7.6,0,0,0,5.45-15.9,7.7,7.7,0,0,0-.2-18.25,7.6,7.6,0,0,0-5.85-15.9,7.6,7.6,0,0,0-8.2-10.25,7.7,7.7,0,0,0-5.85-4.6,7.6,7.6,0,0,0-.2-2.25,7.7,7.7,0,0,0,5.45-4.6m-.3-5.65A5.029,5.029,0,0,1,3.55-6.5,5.029,5.029,0,0,1-.2-4.9,5.249,5.249,0,0,1-4.05-6.5,5.108,5.108,0,0,1-5.6-10.25,5.335,5.335,0,0,1-4.05-14.1,5.429,5.429,0,0,1-.2-15.6a5.2,5.2,0,0,1,3.75,1.5A5.249,5.249,0,0,1,5.15-10.25Z" fill="#477ca6"/>
            <path id="패스_7233" data-name="패스 7233" d="M3.55-6.5a5.029,5.029,0,0,0,1.6-3.75,5.249,5.249,0,0,0-1.6-3.85A5.2,5.2,0,0,0-.2-15.6a5.429,5.429,0,0,0-3.85,1.5A5.335,5.335,0,0,0-5.6-10.25,5.108,5.108,0,0,0-4.05-6.5,5.249,5.249,0,0,0-.2-4.9,5.029,5.029,0,0,0,3.55-6.5M2.9-10.25a1.956,1.956,0,0,1-.65,1.5A1.806,1.806,0,0,1,.8-8.1,2.116,2.116,0,0,1-.75-8.75a2.035,2.035,0,0,1-.6-1.5,2.207,2.207,0,0,1,.6-1.55A2.207,2.207,0,0,1,.8-12.4a1.874,1.874,0,0,1,1.45.6A2.116,2.116,0,0,1,2.9-10.25Z" fill="#fc0"/>
            <path id="패스_7234" data-name="패스 7234" d="M2.25-8.75a1.956,1.956,0,0,0,.65-1.5,2.116,2.116,0,0,0-.65-1.55A1.874,1.874,0,0,0,.8-12.4a2.207,2.207,0,0,0-1.55.6,2.207,2.207,0,0,0-.6,1.55,2.035,2.035,0,0,0,.6,1.5A2.116,2.116,0,0,0,.8-8.1,1.806,1.806,0,0,0,2.25-8.75Z" fill="#fff"/>
          </g>
        </g>
        <g id="그룹_9784" data-name="그룹 9784">
          <g id="그룹_9783" data-name="그룹 9783">
            <path id="패스_7235" data-name="패스 7235" d="M15.15-7.9a2.718,2.718,0,0,0,.9-2.05,2.878,2.878,0,0,0-.9-2.1,2.794,2.794,0,0,0-2.05-.85,2.962,2.962,0,0,0-2.1.85,2.962,2.962,0,0,0-.85,2.1A2.794,2.794,0,0,0,11-7.9a2.962,2.962,0,0,0,2.1.85A2.794,2.794,0,0,0,15.15-7.9Z" fill="#477ca6"/>
          </g>
        </g>
        <g id="그룹_9786" data-name="그룹 9786">
          <g id="그룹_9785" data-name="그룹 9785">
            <path id="패스_7236" data-name="패스 7236" d="M-11.55-7.9a2.718,2.718,0,0,0,.9-2.05,2.878,2.878,0,0,0-.9-2.1,2.737,2.737,0,0,0-2-.85,2.962,2.962,0,0,0-2.1.85,2.962,2.962,0,0,0-.85,2.1,2.794,2.794,0,0,0,.85,2.05,2.962,2.962,0,0,0,2.1.85A2.737,2.737,0,0,0-11.55-7.9Z" fill="#477ca6"/>
          </g>
        </g>
        <g id="그룹_9788" data-name="그룹 9788">
          <g id="그룹_9787" data-name="그룹 9787">
            <path id="패스_7237" data-name="패스 7237" d="M10.2-18.05a5.055,5.055,0,0,0-3.3-1.1H-6.8a5.258,5.258,0,0,0-3.35,1.1A3.5,3.5,0,0,0-11.5-15.3a3.361,3.361,0,0,0,1.35,2.7A5.11,5.11,0,0,0-6.8-11.45H6.9a4.915,4.915,0,0,0,3.3-1.15,3.321,3.321,0,0,0,1.4-2.7A3.457,3.457,0,0,0,10.2-18.05Z" fill="#5393c5"/>
          </g>
        </g>
        <g id="그룹_9790" data-name="그룹 9790">
          <g id="그룹_9789" data-name="그룹 9789">
            <path id="패스_7238" data-name="패스 7238" d="M.85,2.15A.941.941,0,0,0,.2,1.7L-5.6.05A1.206,1.206,0,0,0-6.5.1a1.156,1.156,0,0,0-.45.75,1.187,1.187,0,0,0,.05.9,1.278,1.278,0,0,0,.7.55L-.4,3.95A1.1,1.1,0,0,0,.45,3.8a1.134,1.134,0,0,0,.5-.7A1.541,1.541,0,0,0,.85,2.15Z" fill="#334e63"/>
          </g>
        </g>
      </g>
    </g>
  </g>
</svg>
